<svg width="30" height="20" viewBox="0 0 30 20" fill="none" xmlns="http://www.w3.org/2000/svg">
<path d="M25.8517 19.9985H4.14841C1.86088 19.9985 0 18.1913 0 15.9699V15.5587C0 15.3068 0.209376 15.1035 0.468761 15.1035H29.5312C29.7906 15.1035 30 15.3068 30 15.5587V15.9699C30 18.1913 28.1392 19.9985 25.8517 19.9985ZM0.937602 16.0123C0.96104 17.7117 2.39229 19.0879 4.14853 19.0879H25.8518C27.608 19.0879 29.0393 17.7132 29.0627 16.0123H0.937602Z" fill="#95757D"/>
<path d="M27.5496 16.0126C27.2902 16.0126 27.0808 15.8093 27.0808 15.5574C27.0808 8.93255 21.6604 3.54293 14.9996 3.54293C8.33716 3.54293 2.91994 8.93099 2.91994 15.5574C2.91994 15.8093 2.71057 16.0126 2.45118 16.0126C2.19181 16.0126 1.98242 15.8093 1.98242 15.5574C1.98242 13.814 2.32617 12.1221 3.0043 10.529C3.65899 8.99046 4.59807 7.60816 5.79183 6.42011C6.98715 5.23354 8.37936 4.29887 9.93104 3.64944C11.5373 2.97421 13.2435 2.63281 15.0015 2.63281C16.7593 2.63281 18.4671 2.97422 20.0719 3.64944C21.6234 4.3019 23.0156 5.23354 24.2111 6.42011C25.4064 7.60668 26.3439 8.98747 26.9986 10.529C27.6767 12.1223 28.0205 13.8126 28.0205 15.5574C28.0189 15.8093 27.8096 16.0126 27.5502 16.0126H27.5496Z" fill="#95757D"/>
<path d="M7.18494 8.81029C7.07244 8.81029 6.95994 8.77084 6.87088 8.69193C6.67869 8.52351 6.66463 8.23521 6.83806 8.0486C8.16775 6.6238 9.84587 5.54649 11.6881 4.93501C11.9318 4.85307 12.2006 4.98053 12.2834 5.21724C12.3678 5.45394 12.2365 5.71491 11.9928 5.79535C10.3021 6.35828 8.7584 7.34912 7.53636 8.6601C7.44105 8.75873 7.31307 8.81029 7.18494 8.81029Z" fill="#95757D"/>
<path d="M16.0324 3.58636C15.8918 3.58636 15.7543 3.52567 15.6606 3.41035C15.5028 3.21157 15.5387 2.92631 15.7418 2.77156C15.7418 2.77156 16.7825 1.98559 16.8231 1.95521C16.8262 1.95217 16.8309 1.94914 16.8356 1.94762C17.0684 1.78071 17.0824 1.58953 17.0512 1.45904C17.0043 1.25268 16.8043 1.01296 16.4653 0.949213C16.4496 0.946178 16.4324 0.941626 16.4168 0.937074C16.1887 0.900657 15.0575 0.909761 14.509 0.914314C14.0997 0.917348 13.8825 0.917348 13.7887 0.914314C13.5512 0.902175 13.2653 1.01446 13.0809 1.19351C13.0168 1.2542 12.9106 1.38014 12.9184 1.51822C12.92 1.54553 12.9184 1.56981 12.9153 1.5956C12.909 1.64113 12.959 1.74734 13.1121 1.90211C13.2965 2.08571 13.559 2.27234 13.7918 2.4347C13.9762 2.56367 14.1496 2.68506 14.2777 2.8019C14.4653 2.97487 14.4746 3.26317 14.2965 3.44523C14.1184 3.62731 13.8215 3.63642 13.634 3.46344C13.5496 3.38757 13.4012 3.28288 13.2434 3.17211C12.6825 2.77912 11.9168 2.2435 11.9825 1.52124C11.9762 1.17224 12.1309 0.826275 12.42 0.547103C12.7919 0.185973 13.3356 -0.0203699 13.8403 0.00390765C13.9106 0.00694254 14.2122 0.00542529 14.5044 0.00390765C16.0482 -0.00823112 16.4763 0.00694251 16.6778 0.0630827C17.3278 0.198128 17.8325 0.666992 17.9685 1.26329C18.0935 1.80648 17.8794 2.33453 17.3966 2.68199C17.395 2.68351 17.3935 2.68502 17.3904 2.68502L16.32 3.49224C16.2341 3.55597 16.1324 3.58636 16.0324 3.58636Z" fill="#95757D"/>
<path d="M27.332 13.7776H18.6367C18.3774 13.7776 18.168 13.5743 18.168 13.3224C18.168 13.0705 18.3773 12.8672 18.6367 12.8672H27.332C27.5913 12.8672 27.8007 13.0705 27.8007 13.3224C27.8007 13.5743 27.5929 13.7776 27.332 13.7776Z" fill="#95757D"/>
<path d="M16.8344 13.7776H16.0547C15.7953 13.7776 15.5859 13.5743 15.5859 13.3224C15.5859 13.0705 15.7953 12.8672 16.0547 12.8672H16.8344C17.0938 12.8672 17.3031 13.0705 17.3031 13.3224C17.3031 13.5743 17.0938 13.7776 16.8344 13.7776Z" fill="#95757D"/>
</svg>
