<svg width="30" height="20" viewBox="0 0 30 20" fill="none" xmlns="http://www.w3.org/2000/svg">
<path fill-rule="evenodd" clip-rule="evenodd" d="M6.33687 0.00011379C6.24551 -0.0015892 6.15475 0.0158384 6.06988 0.0513762C5.98501 0.0869139 5.90772 0.139857 5.84255 0.207104C5.77737 0.274351 5.7256 0.354554 5.69026 0.443043C5.65492 0.531532 5.63672 0.626527 5.63672 0.722484C5.63672 0.81844 5.65492 0.913436 5.69026 1.00192C5.7256 1.09041 5.77737 1.17062 5.84255 1.23786C5.90772 1.30511 5.98501 1.35805 6.06988 1.39359C6.15475 1.42913 6.24551 1.44656 6.33687 1.44485H29.2995C29.3909 1.44656 29.4816 1.42913 29.5665 1.39359C29.6514 1.35805 29.7287 1.30511 29.7938 1.23786C29.859 1.17062 29.9108 1.09041 29.9461 1.00192C29.9815 0.913436 29.9997 0.81844 29.9997 0.722484C29.9997 0.626527 29.9815 0.531532 29.9461 0.443043C29.9108 0.354554 29.859 0.274351 29.7938 0.207104C29.7287 0.139857 29.6514 0.0869139 29.5665 0.0513762C29.4816 0.0158384 29.3909 -0.0015892 29.2995 0.00011379H6.33687Z" fill="#95757D"/>
<path fill-rule="evenodd" clip-rule="evenodd" d="M0.700147 0.00011379C0.608793 -0.0015892 0.51803 0.0158384 0.433159 0.0513762C0.348287 0.0869139 0.271006 0.139857 0.205828 0.207104C0.14065 0.274351 0.08888 0.354554 0.0535405 0.443043C0.018201 0.531532 0 0.626527 0 0.722484C0 0.81844 0.018201 0.913436 0.0535405 1.00192C0.08888 1.09041 0.14065 1.17062 0.205828 1.23786C0.271006 1.30511 0.348287 1.35805 0.433159 1.39359C0.51803 1.42913 0.608793 1.44656 0.700147 1.44485H3.42244C3.51379 1.44656 3.60456 1.42913 3.68943 1.39359C3.7743 1.35805 3.85158 1.30511 3.91676 1.23786C3.98194 1.17062 4.03371 1.09041 4.06905 1.00192C4.10439 0.913436 4.12259 0.81844 4.12259 0.722484C4.12259 0.626527 4.10439 0.531532 4.06905 0.443043C4.03371 0.354554 3.98194 0.274351 3.91676 0.207104C3.85158 0.139857 3.7743 0.0869139 3.68943 0.0513762C3.60456 0.0158384 3.51379 -0.0015892 3.42244 0.00011379H0.700147Z" fill="#95757D"/>
<path fill-rule="evenodd" clip-rule="evenodd" d="M6.33774 4.62318C6.24639 4.62135 6.15561 4.63867 6.0707 4.67409C5.98579 4.70951 5.90845 4.76233 5.84319 4.82948C5.77793 4.89664 5.72606 4.97679 5.69061 5.06522C5.65516 5.15366 5.63684 5.24862 5.63672 5.34458C5.6366 5.44053 5.65468 5.53555 5.6899 5.62408C5.72513 5.71262 5.77679 5.79288 5.84188 5.86022C5.90697 5.92756 5.98418 5.98062 6.06901 6.01628C6.15383 6.05194 6.24457 6.06949 6.33592 6.06792L29.2987 6.10042C29.39 6.10224 29.4808 6.08495 29.5657 6.04953C29.6506 6.01411 29.728 5.96127 29.7932 5.89411C29.8585 5.82695 29.9104 5.74683 29.9458 5.65839C29.9813 5.56995 29.9996 5.47499 29.9997 5.37904C29.9998 5.28309 29.9817 5.18807 29.9465 5.09953C29.9113 5.011 29.8596 4.93071 29.7945 4.86337C29.7295 4.79604 29.6522 4.74299 29.5674 4.70734C29.4826 4.67168 29.3919 4.65413 29.3005 4.6557L6.33774 4.62318Z" fill="#95757D"/>
<path fill-rule="evenodd" clip-rule="evenodd" d="M0.700977 4.62318C0.609627 4.62136 0.518847 4.63868 0.433937 4.67411C0.349026 4.70954 0.271686 4.76237 0.206431 4.82953C0.141176 4.89669 0.0893136 4.97683 0.0538707 5.06527C0.0184278 5.15371 0.000114763 5.24869 5.37669e-07 5.34464C-0.000113688 5.4406 0.0179732 5.53559 0.0532054 5.62413C0.0884377 5.71266 0.140109 5.79296 0.205204 5.86029C0.270299 5.92762 0.347513 5.98065 0.432339 6.0163C0.517165 6.05195 0.607903 6.0695 0.699257 6.06792L3.42144 6.07153C3.51279 6.07336 3.60357 6.05607 3.68848 6.02064C3.7734 5.98522 3.85074 5.93238 3.916 5.86523C3.98126 5.79807 4.03313 5.71794 4.06857 5.62951C4.10402 5.54107 4.12234 5.44609 4.12246 5.35013C4.12259 5.25418 4.10451 5.15916 4.06928 5.07063C4.03405 4.98209 3.98239 4.90183 3.9173 4.83449C3.85221 4.76715 3.775 4.71409 3.69018 4.67843C3.60535 4.64277 3.51462 4.62522 3.42326 4.62679L0.700977 4.62318Z" fill="#95757D"/>
<path fill-rule="evenodd" clip-rule="evenodd" d="M6.33687 9.27941C6.24551 9.27771 6.15475 9.29514 6.06988 9.33067C5.98501 9.36621 5.90772 9.41915 5.84255 9.4864C5.77737 9.55365 5.7256 9.63385 5.69026 9.72234C5.65492 9.81083 5.63672 9.90582 5.63672 10.0018C5.63672 10.0977 5.65492 10.1927 5.69026 10.2812C5.7256 10.3697 5.77737 10.4499 5.84255 10.5172C5.90772 10.5844 5.98501 10.6374 6.06988 10.6729C6.15475 10.7084 6.24551 10.7259 6.33687 10.7242H29.2995C29.3909 10.7259 29.4816 10.7084 29.5665 10.6729C29.6514 10.6374 29.7287 10.5844 29.7938 10.5172C29.859 10.4499 29.9108 10.3697 29.9461 10.2812C29.9815 10.1927 29.9997 10.0977 29.9997 10.0018C29.9997 9.90582 29.9815 9.81083 29.9461 9.72234C29.9108 9.63385 29.859 9.55365 29.7938 9.4864C29.7287 9.41915 29.6514 9.36621 29.5665 9.33067C29.4816 9.29514 29.3909 9.27771 29.2995 9.27941H6.33687Z" fill="#95757D"/>
<path fill-rule="evenodd" clip-rule="evenodd" d="M0.700147 9.25207C0.608793 9.25036 0.51803 9.26779 0.433159 9.30333C0.348287 9.33887 0.271006 9.39181 0.205828 9.45906C0.14065 9.5263 0.08888 9.60651 0.0535405 9.695C0.018201 9.78348 0 9.87848 0 9.97444C0 10.0704 0.018201 10.1654 0.0535405 10.2539C0.08888 10.3424 0.14065 10.4226 0.205828 10.4898C0.271006 10.5571 0.348287 10.61 0.433159 10.6455C0.51803 10.6811 0.608793 10.6985 0.700147 10.6968H3.42244C3.51379 10.6985 3.60456 10.6811 3.68943 10.6455C3.7743 10.61 3.85158 10.5571 3.91676 10.4898C3.98194 10.4226 4.03371 10.3424 4.06905 10.2539C4.10439 10.1654 4.12259 10.0704 4.12259 9.97444C4.12259 9.87848 4.10439 9.78348 4.06905 9.695C4.03371 9.60651 3.98194 9.5263 3.91676 9.45906C3.85158 9.39181 3.7743 9.33887 3.68943 9.30333C3.60456 9.26779 3.51379 9.25036 3.42244 9.25207H0.700147Z" fill="#95757D"/>
<path fill-rule="evenodd" clip-rule="evenodd" d="M29.2986 13.9025L6.33583 13.9314C6.2445 13.9298 6.15378 13.9474 6.06897 13.983C5.98417 14.0187 5.90697 14.0717 5.84189 14.139C5.77681 14.2064 5.72515 14.2866 5.68993 14.3751C5.6547 14.4637 5.63661 14.5587 5.63672 14.6546C5.63683 14.7505 5.65513 14.8455 5.69055 14.9339C5.72598 15.0223 5.77781 15.1025 5.84304 15.1697C5.90827 15.2368 5.98559 15.2896 6.07047 15.3251C6.15536 15.3605 6.24612 15.3779 6.33745 15.3761L29.3002 15.3472C29.3916 15.3488 29.4823 15.3312 29.5671 15.2955C29.6519 15.2599 29.7291 15.2069 29.7942 15.1395C29.8592 15.0722 29.9109 14.9919 29.9461 14.9034C29.9814 14.8149 29.9994 14.7199 29.9993 14.624C29.9992 14.528 29.9809 14.4331 29.9455 14.3446C29.9101 14.2562 29.8582 14.1761 29.793 14.1089C29.7278 14.0418 29.6505 13.9889 29.5656 13.9535C29.4807 13.918 29.3899 13.9007 29.2986 13.9025Z" fill="#95757D"/>
<path fill-rule="evenodd" clip-rule="evenodd" d="M3.42124 13.8732L0.699061 13.8768C0.607723 13.8752 0.517006 13.8928 0.432203 13.9285C0.347399 13.9641 0.270209 14.0172 0.205134 14.0845C0.14006 14.1518 0.0884065 14.2321 0.0531866 14.3206C0.0179667 14.4091 -0.000113667 14.5041 5.37663e-07 14.6001C0.000114742 14.696 0.0184211 14.791 0.0538517 14.8794C0.0892822 14.9678 0.141127 15.048 0.206361 15.1151C0.271595 15.1823 0.348912 15.2351 0.4338 15.2706C0.518688 15.306 0.609447 15.3233 0.700781 15.3215L3.42307 15.3179C3.51441 15.3195 3.60513 15.3019 3.68993 15.2662C3.77473 15.2305 3.85191 15.1775 3.91698 15.1102C3.98205 15.0428 4.0337 14.9626 4.06891 14.874C4.10413 14.7855 4.1222 14.6905 4.12208 14.5946C4.12196 14.4986 4.10365 14.4037 4.06821 14.3153C4.03277 14.2268 3.98092 14.1467 3.91568 14.0796C3.85044 14.0124 3.77312 13.9596 3.68823 13.9241C3.60334 13.8887 3.51258 13.8714 3.42124 13.8732Z" fill="#95757D"/>
<path fill-rule="evenodd" clip-rule="evenodd" d="M6.33667 18.5548C6.24533 18.5531 6.15459 18.5706 6.06974 18.6061C5.98489 18.6417 5.90764 18.6946 5.84248 18.7619C5.77732 18.8291 5.72557 18.9093 5.69024 18.9978C5.65491 19.0862 5.63672 19.1812 5.63672 19.2772C5.63672 19.3731 5.65491 19.4681 5.69024 19.5566C5.72557 19.645 5.77732 19.7252 5.84248 19.7925C5.90764 19.8597 5.98489 19.9127 6.06974 19.9482C6.15459 19.9838 6.24533 20.0012 6.33667 19.9995H29.2993C29.3907 20.0012 29.4814 19.9838 29.5663 19.9482C29.6511 19.9127 29.7284 19.8597 29.7935 19.7925C29.8587 19.7252 29.9104 19.645 29.9458 19.5566C29.9811 19.4681 29.9993 19.3731 29.9993 19.2772C29.9993 19.1812 29.9811 19.0862 29.9458 18.9978C29.9104 18.9093 29.8587 18.8291 29.7935 18.7619C29.7284 18.6946 29.6511 18.6417 29.5663 18.6061C29.4814 18.5706 29.3907 18.5531 29.2993 18.5548H6.33667Z" fill="#95757D"/>
<path fill-rule="evenodd" clip-rule="evenodd" d="M0.699952 18.5021C0.608613 18.5004 0.517872 18.5178 0.433023 18.5534C0.348173 18.5889 0.270916 18.6419 0.205759 18.7091C0.140601 18.7764 0.0888488 18.8566 0.0535216 18.945C0.0181944 19.0335 0 19.1285 0 19.2244C0 19.3204 0.0181944 19.4154 0.0535216 19.5038C0.0888488 19.5923 0.140601 19.6725 0.205759 19.7397C0.270916 19.807 0.348173 19.8599 0.433023 19.8955C0.517872 19.931 0.608613 19.9485 0.699952 19.9468H3.42225C3.51358 19.9485 3.60433 19.931 3.68918 19.8955C3.77402 19.8599 3.85128 19.807 3.91644 19.7397C3.9816 19.6725 4.03335 19.5923 4.06868 19.5038C4.104 19.4154 4.1222 19.3204 4.1222 19.2244C4.1222 19.1285 4.104 19.0335 4.06868 18.945C4.03335 18.8566 3.9816 18.7764 3.91644 18.7091C3.85128 18.6419 3.77402 18.5889 3.68918 18.5534C3.60433 18.5178 3.51358 18.5004 3.42225 18.5021H0.699952Z" fill="#95757D"/>
</svg>
