<svg width="296" height="101" viewBox="0 0 296 101" fill="none" xmlns="http://www.w3.org/2000/svg">
<mask id="mask0_1_18847" style="mask-type:luminance" maskUnits="userSpaceOnUse" x="0" y="0" width="296" height="101">
<path d="M0.93811 0H295.829V100.256H0.93811V0Z" fill="white"/>
</mask>
<g mask="url(#mask0_1_18847)">
<path d="M109.805 40.0802C107.097 40.0802 102.057 40.5913 98.7984 44.0739L96.7856 46.1985V0L33.686 20.8468V9.37707L22.7674 12.9793V24.449L0.93811 31.6616V100.256H96.7856V89.3537H11.8328V39.5291L22.7674 35.9428V78.4511H33.7659L34.3649 74.0342L36.0342 75.7674C38.0631 77.868 42.424 79.2737 46.793 79.2737C56.9529 79.2737 64.0457 71.3344 64.0457 59.9685C64.0457 48.6026 56.9529 40.4956 46.793 40.4956C41.8649 40.4956 38.1509 42.0211 35.7388 45.0323L33.686 47.6281V32.3245L85.8829 15.088V78.9863H96.7856V57.6682C96.7856 52.2927 100.891 49.8406 104.701 49.8406C108.655 49.8406 112.648 52.5324 112.648 57.6682V78.9623H123.551V53.8823C123.551 44.8246 116.626 40.0802 109.789 40.0802H109.805ZM43.4624 49.7527C49.2851 49.7527 53.3426 53.9222 53.3426 59.8806C53.3426 65.8392 49.1893 70.0166 43.4624 70.0166C37.8714 70.0166 33.8777 65.7513 33.8777 59.8806C33.8777 54.01 37.9113 49.7527 43.4624 49.7527Z" fill="white"/>
<path d="M150.859 40.0796C139.158 40.0796 130.332 48.6179 130.332 59.9439C130.332 71.2699 139.166 79.8084 150.867 79.8084C162.568 79.8084 171.402 71.2618 171.402 59.9439C171.402 48.6259 162.616 40.0796 150.867 40.0796H150.859ZM150.867 70.4312C145.124 70.4312 141.107 66.118 141.107 59.9519C141.107 53.7856 145.1 49.4726 150.867 49.4726C156.634 49.4726 160.635 53.7778 160.635 59.9519C160.635 66.126 156.642 70.4312 150.867 70.4312Z" fill="white"/>
<path d="M204.088 62.3006C204.088 66.9812 200.981 70.1203 196.348 70.1203C192.107 70.1203 189.024 66.8295 189.024 62.3006V40.9188H178.13V63.5227C178.13 73.2591 185.447 79.8087 196.348 79.8087C207.251 79.8087 214.999 73.0036 214.999 63.2671V40.9027H204.088V62.3006Z" fill="white"/>
<path d="M79.6464 55.2563H70.2773V64.6255H79.6464V55.2563Z" fill="white"/>
<path d="M234.871 49.5696C235.874 49.1158 236.965 48.8869 238.066 48.8987C239.548 48.8952 241.012 49.2284 242.347 49.8731C243.64 50.4845 244.832 51.2929 245.878 52.2694L252.643 45.2805C250.7 43.4742 248.377 42.1259 245.846 41.3347C243.187 40.4611 240.409 40.0163 237.61 40.0168C235.772 40.0214 233.94 40.263 232.163 40.7357C230.385 41.1868 228.694 41.9349 227.163 42.9482C225.663 43.9492 224.404 45.2728 223.48 46.8219C222.484 48.5711 221.99 50.561 222.052 52.5728C222.008 54.1319 222.344 55.6784 223.034 57.0776C223.646 58.3033 224.501 59.3907 225.549 60.2727C226.595 61.1335 227.775 61.8188 229.04 62.3013C230.314 62.7941 231.623 63.1945 232.955 63.4994C234.866 63.9044 236.739 64.4848 238.546 65.2327C239.075 65.4175 239.533 65.7632 239.857 66.2214C240.181 66.6797 240.353 67.2276 240.35 67.7885C240.392 68.2962 240.282 68.8046 240.034 69.2496C239.787 69.6947 239.413 70.0563 238.96 70.2886C238.039 70.7528 237.022 70.9962 235.989 70.9996C234.214 71.0064 232.463 70.5959 230.878 69.8014C229.352 69.0556 227.975 68.0348 226.821 66.7902L219.903 74.0826C221.985 76.0645 224.493 77.5427 227.235 78.4037C230.119 79.371 233.14 79.8673 236.181 79.8735C238.108 79.8683 240.026 79.6405 241.899 79.1945C243.729 78.7743 245.47 78.0363 247.044 77.014C248.696 75.9578 250.043 74.485 250.947 72.7437C251.853 71.0024 252.282 69.0539 252.195 67.0938C252.239 65.4753 251.876 63.8719 251.141 62.4292C250.458 61.1385 249.512 60.0063 248.362 59.1065C247.184 58.1922 245.879 57.4573 244.487 56.9259C243.111 56.3879 241.692 55.9605 240.247 55.648C238.467 55.2849 236.721 54.7801 235.023 54.1383C234.545 53.9956 234.126 53.7024 233.828 53.3023C233.529 52.9023 233.369 52.4167 233.369 51.918C233.344 51.4252 233.473 50.9366 233.735 50.5192C233.999 50.1018 234.383 49.7758 234.839 49.5857" fill="white"/>
<path d="M292.771 47.989C289.392 42.9808 283.873 40.0017 277.035 40.0017C265.549 40.0017 256.884 48.5561 256.884 59.906C256.884 71.6792 265.397 79.8742 277.595 79.8742C283.824 79.8742 289.8 78.0291 293.305 75.0818L288.338 67.5978C286.005 69.5227 281.741 70.6967 278.96 70.6967C272.803 70.6967 269.727 67.2942 268.913 64.0993L268.801 63.652H295.478C296.517 57.0306 295.143 51.4714 292.771 47.9729V47.989ZM268.672 55.9602L268.744 55.5369C269.752 49.6823 275.343 49.227 277.035 49.227C284.112 49.227 285.23 54.0752 285.407 55.5528L285.454 55.9602H268.672Z" fill="white"/>
</g>
</svg>
