<svg width="46" height="46" viewBox="0 0 46 46" fill="none" xmlns="http://www.w3.org/2000/svg">
<circle cx="23" cy="23" r="23" fill="white"/>
<path d="M22.9995 9C21.2604 9 19.842 10.2835 19.842 11.857V13.2074C15.9449 14.3835 13.1429 17.6778 13.1429 21.5696V28.9768L11.0541 32.9148C11.0138 32.9909 10.9955 33.075 11.0009 33.1593C11.0063 33.2436 11.0352 33.3252 11.0848 33.3967C11.1345 33.4682 11.2034 33.5271 11.285 33.5679C11.3667 33.6088 11.4584 33.6303 11.5517 33.6305H18.1365V33.649C18.1365 36.0546 20.3199 38 22.9995 38C25.679 38 27.8592 36.0546 27.8592 33.649V33.6305H34.4439C34.5376 33.631 34.6299 33.61 34.7121 33.5694C34.7944 33.5288 34.8638 33.4699 34.914 33.3984C34.9642 33.3268 34.9934 33.2449 34.999 33.1603C35.0046 33.0757 34.9863 32.9912 34.9459 32.9148L32.856 28.9768V21.5696C32.856 17.6767 30.0524 14.3817 26.1537 13.2065V11.857C26.1537 10.2835 24.7385 9 22.9995 9ZM22.9466 10.0008C22.9643 10.0004 22.9816 10.0008 22.9995 10.0008C24.1449 10.0008 25.0472 10.8199 25.0472 11.857V12.937C24.3868 12.8125 23.7016 12.7466 22.9995 12.7466C22.2954 12.7466 21.6094 12.8128 20.9474 12.938V11.857C20.9474 10.8361 21.8265 10.0259 22.9466 10.0008ZM22.9995 13.7464C27.861 13.7464 31.7507 17.2308 31.7507 21.5696V29.0872C31.75 29.1624 31.768 29.2369 31.8036 29.3049L33.5663 32.6306H12.4283L14.191 29.3049C14.228 29.2372 14.2476 29.1627 14.2482 29.0872V21.5696C14.2482 17.2308 18.1379 13.7464 22.9995 13.7464ZM19.2418 33.6305H26.7528V33.649C26.7528 35.5118 25.0925 37.0001 22.9995 37.0001C20.9064 37.0001 19.2418 35.5118 19.2418 33.649V33.6305Z" fill="#26211F"/>
</svg>
