<svg width="22" height="22" viewBox="0 0 22 22" fill="none" xmlns="http://www.w3.org/2000/svg">
<path fill-rule="evenodd" clip-rule="evenodd" d="M21.321 5.79736L9.44291 17.7265C9.08838 18.0825 8.62758 18.3134 8.13105 18.3852L3.97345 18.9818C3.73291 19.0168 3.48948 18.9353 3.31753 18.7626C3.14558 18.5899 3.06444 18.3454 3.09921 18.1038L3.6933 13.9284C3.76382 13.4297 3.99471 12.9679 4.34922 12.6109L16.2273 0.681792C17.1325 -0.227264 18.6008 -0.227264 19.506 0.681792L21.3211 2.50472C22.2263 3.41378 22.2261 4.88828 21.321 5.79736ZM14.3916 4.72049L5.44159 13.7082C5.32374 13.8276 5.24646 13.9809 5.22327 14.1477L4.77504 17.2989L7.91278 16.8488C8.07894 16.8255 8.23158 16.7479 8.35038 16.6295L17.3004 7.64103L14.3927 4.72078L14.3916 4.72049ZM18.392 6.54342L20.2274 4.7001C20.5298 4.39739 20.5298 3.90554 20.2274 3.60283L18.4123 1.7799C18.1099 1.4772 17.6211 1.4772 17.3187 1.7799L15.4833 3.62322L18.391 6.54347L18.392 6.54342ZM0.772813 22C0.345824 22 0 21.6527 0 21.2239C0 20.795 0.345824 20.4477 0.772813 20.4477H13.9106C14.3376 20.4477 14.6834 20.795 14.6834 21.2239C14.6834 21.6527 14.3376 22 13.9106 22H0.772813Z" fill="black"/>
</svg>
