<svg width="51" height="51" viewBox="0 0 51 51" fill="none" xmlns="http://www.w3.org/2000/svg">
<circle cx="25.5" cy="25.5" r="25" fill="#EEF7FF" stroke="#E9E9E9"/>
<path fill-rule="evenodd" clip-rule="evenodd" d="M17.3128 12V12.6085C17.4484 12.5974 17.5865 12.5919 17.7247 12.5919C20.4005 12.5919 22.5698 14.9762 22.5698 17.9136C22.5698 19.1832 22.1656 20.3449 21.4928 21.2604V35.3862L17.3512 32.5732L17.3128 32.6064V38H36V12H17.3128ZM23.3142 34.2961H32.8942C33.2372 34.2961 33.516 34.6006 33.516 34.9768C33.516 35.3555 33.2372 35.66 32.8942 35.66H23.3142C22.9714 35.66 22.6926 35.3555 22.6926 34.9768C22.6926 34.6006 22.9714 34.2961 23.3142 34.2961ZM23.3142 30.6533H32.8942C33.2372 30.6533 33.516 30.9604 33.516 31.3368C33.516 31.7155 33.2372 32.02 32.8942 32.02H23.3142C22.9714 32.02 22.6926 31.7155 22.6926 31.3368C22.6926 30.9606 22.9714 30.6533 23.3142 30.6533ZM23.3142 27.0133H32.8942C33.2372 27.0133 33.516 27.3206 33.516 27.6968C33.516 28.0757 33.2372 28.3803 32.8942 28.3803H23.3142C22.9714 28.3803 22.6926 28.0757 22.6926 27.6968C22.6926 27.3209 22.9714 27.0133 23.3142 27.0133ZM14 17.9136C14 18.89 14.3095 19.7862 14.8288 20.4915V33.84L17.5405 31.11L20.623 33.84V20.4915C21.1423 19.7862 21.4519 18.89 21.4519 17.9136C21.4519 15.6538 19.784 13.82 17.7247 13.82C15.6679 13.82 14 15.6538 14 17.9136ZM15.5349 17.6702C15.5349 16.373 16.5095 15.3191 17.7093 15.3191C18.9091 15.3191 19.8837 16.373 19.8837 17.6702C19.8837 18.9674 18.9091 20.0213 17.7093 20.0213C16.5095 20.0213 15.5349 18.9674 15.5349 17.6702Z" fill="#004680"/>
</svg>
