<svg width="13" height="13" viewBox="0 0 13 13" fill="none" xmlns="http://www.w3.org/2000/svg">
<path d="M12.87 1.29044C13.0433 1.46551 13.0433 1.74934 12.87 1.9244L11.9445 2.8594L10.1695 1.06629L11.095 0.131297C11.2683 -0.0437657 11.5493 -0.0437656 11.7226 0.131297L12.87 1.29044Z" fill="#004680"/>
<path d="M11.3169 3.49336L9.54195 1.70025L3.49548 7.80845C3.44677 7.85767 3.41007 7.91766 3.38828 7.98368L2.67424 10.1477C2.61642 10.3229 2.78144 10.4896 2.95489 10.4312L5.09701 9.70985C5.16236 9.68784 5.22175 9.65077 5.27046 9.60156L11.3169 3.49336Z" fill="#004680"/>
<path fill-rule="evenodd" clip-rule="evenodd" d="M0 11.6552C0 12.3979 0.596015 13 1.33124 13H11.0936C11.8289 13 12.4249 12.3979 12.4249 11.6552V6.27586C12.4249 6.02829 12.2262 5.82759 11.9811 5.82759C11.7361 5.82759 11.5374 6.02829 11.5374 6.27586V11.6552C11.5374 11.9027 11.3387 12.1034 11.0936 12.1034H1.33124C1.08616 12.1034 0.887491 11.9027 0.887491 11.6552V1.7931C0.887491 1.54553 1.08616 1.34483 1.33124 1.34483H7.09993C7.345 1.34483 7.54367 1.14413 7.54367 0.896552C7.54367 0.648976 7.345 0.448276 7.09993 0.448276H1.33124C0.596015 0.448276 0 1.05038 0 1.7931V11.6552Z" fill="#004680"/>
</svg>
