<svg width="88" height="88" viewBox="0 0 88 88" fill="none" xmlns="http://www.w3.org/2000/svg">
<circle cx="43.75" cy="43.75" r="43.75" fill="#FEAD37"/>
<path fill-rule="evenodd" clip-rule="evenodd" d="M39.9902 17C38.2526 17 36.8158 18.5397 37.0193 20.3987L40.5552 57.0654C40.7284 58.6409 42.0345 59.7778 43.5231 59.7778H44.4769C45.9655 59.7778 47.2717 58.6409 47.4448 57.0654L50.9807 20.3987C51.1843 18.5397 49.7474 17 48.0098 17H39.9902ZM43.9999 64.3611C41.9707 64.3611 40.2544 66.0321 40.2544 68.1806C40.2544 70.329 41.9707 72 43.9999 72C46.0291 72 47.7454 70.329 47.7454 68.1806C47.7454 66.0321 46.0291 64.3611 43.9999 64.3611Z" fill="white"/>
</svg>
