<svg width="49" height="52" viewBox="0 0 49 52" fill="none" xmlns="http://www.w3.org/2000/svg">
<circle cx="17.6613" cy="17.6613" r="18.4113" transform="matrix(0.680628 -0.732629 0.680628 0.732629 0 25.8784)" fill="#26211F" stroke="white" stroke-width="1.5"/>
<path d="M17.6163 18.5165C18.0884 18.0082 18.854 18.0082 19.3261 18.5165L24.4557 24.0379L29.5853 18.5165C30.0574 18.0082 30.823 18.0082 31.2951 18.5165C31.7673 19.0247 31.7673 19.8487 31.2951 20.3569L26.1656 25.8784L31.2951 31.3999C31.7673 31.9081 31.7673 32.7321 31.2951 33.2404C30.823 33.7486 30.0574 33.7486 29.5853 33.2404L24.4557 27.7189L19.3261 33.2404C18.854 33.7486 18.0884 33.7486 17.6163 33.2404C17.1441 32.7321 17.1441 31.9081 17.6163 31.3999L22.7459 25.8784L17.6163 20.3569C17.1441 19.8487 17.1441 19.0247 17.6163 18.5165Z" fill="white"/>
</svg>
