<svg width="400" height="23" viewBox="0 0 400 23" fill="none" xmlns="http://www.w3.org/2000/svg">
<path d="M0 18.5V0H82.5V7L69 21C67 23.4 64.8333 22 64 21C60.3333 17.3333 52.8 9.7 52 8.5C51.2 7.3 49.6667 8 49 8.5L35 21C33.8 22.2 31.8333 21.5 31 21L19 8.5C18.2 7.3 16.6667 8 16 8.5L5.5 18.5C1.5 22.9 0.166667 20.3333 0 18.5Z" fill="#EEF7FF"/>
<path d="M165 18.5V0H82.5V7L96 21C98 23.4 100.167 22 101 21C104.667 17.3333 112.2 9.7 113 8.5C113.8 7.3 115.333 8 116 8.5L130 21C131.2 22.2 133.167 21.5 134 21L146 8.5C146.8 7.3 148.333 8 149 8.5L159.5 18.5C163.5 22.9 164.833 20.3333 165 18.5Z" fill="#EEF7FF"/>
<path d="M161 18.5V0H243.5V7L230 21C228 23.4 225.833 22 225 21C221.333 17.3333 213.8 9.7 213 8.5C212.2 7.3 210.667 8 210 8.5L196 21C194.8 22.2 192.833 21.5 192 21L180 8.5C179.2 7.3 177.667 8 177 8.5L166.5 18.5C162.5 22.9 161.167 20.3333 161 18.5Z" fill="#EEF7FF"/>
<path d="M326 18.5V0H243.5V7L257 21C259 23.4 261.167 22 262 21C265.667 17.3333 273.2 9.7 274 8.5C274.8 7.3 276.333 8 277 8.5L291 21C292.2 22.2 294.167 21.5 295 21L307 8.5C307.8 7.3 309.333 8 310 8.5L320.5 18.5C324.5 22.9 325.833 20.3333 326 18.5Z" fill="#EEF7FF"/>
<path d="M323 18.5V0H400V7L387.4 21C385.533 23.4 383.511 22 382.733 21C379.311 17.3333 372.28 9.7 371.533 8.5C370.787 7.3 369.356 8 368.733 8.5L355.667 21C354.547 22.2 352.711 21.5 351.933 21L340.733 8.5C339.987 7.3 338.556 8 337.933 8.5L328.133 18.5C324.4 22.9 323.156 20.3333 323 18.5Z" fill="#EEF7FF"/>
</svg>
