<svg width="32" height="38" viewBox="0 0 32 38" fill="none" xmlns="http://www.w3.org/2000/svg">
<path fill-rule="evenodd" clip-rule="evenodd" d="M4.8186 -0.00793457V0.881427C5.01581 0.865257 5.21674 0.857172 5.41767 0.857172C9.30977 0.857172 12.4651 4.34185 12.4651 8.63504C12.4651 10.4906 11.8772 12.1884 10.8986 13.5265V34.1719L4.87442 30.0606L4.8186 30.1091V37.9921H32V-0.00793457H4.8186ZM13.5479 32.5787H27.4824C27.9814 32.5787 28.387 33.0238 28.387 33.5736C28.387 34.127 27.9814 34.5721 27.4824 34.5721H13.5479C13.0493 34.5721 12.6437 34.127 12.6437 33.5736C12.6437 33.0238 13.0493 32.5787 13.5479 32.5787ZM13.5479 27.2546H27.4824C27.9814 27.2546 28.387 27.7034 28.387 28.2536C28.387 28.807 27.9814 29.2521 27.4824 29.2521H13.5479C13.0493 29.2521 12.6437 28.807 12.6437 28.2536C12.6437 27.7038 13.0493 27.2546 13.5479 27.2546ZM13.5479 21.9346H27.4824C27.9814 21.9346 28.387 22.3838 28.387 22.9336C28.387 23.4874 27.9814 23.9325 27.4824 23.9325H13.5479C13.0493 23.9325 12.6437 23.4874 12.6437 22.9336C12.6437 22.3842 13.0493 21.9346 13.5479 21.9346ZM0 8.63504C0 10.0621 0.450232 11.3719 1.20558 12.4027V31.9121L5.14977 27.9221L9.63349 31.9121V12.4027C10.3888 11.3719 10.8391 10.0621 10.8391 8.63504C10.8391 5.33228 8.41302 2.65207 5.41767 2.65207C2.42605 2.65207 0 5.33228 0 8.63504ZM2.23256 8.2793C2.23256 6.38334 3.65023 4.84313 5.39535 4.84313C7.14047 4.84313 8.55814 6.38334 8.55814 8.2793C8.55814 10.1753 7.14047 11.7155 5.39535 11.7155C3.65023 11.7155 2.23256 10.1753 2.23256 8.2793Z" fill="#004680"/>
</svg>
