<svg width="76" height="30" viewBox="0 0 76 30" fill="none" xmlns="http://www.w3.org/2000/svg">
<rect width="76" height="30" rx="13" fill="#EEF7FF"/>
<path d="M19.162 20V10.2H23.614C24.678 10.2 25.616 10.4053 26.428 10.816C27.24 11.2173 27.8747 11.782 28.332 12.51C28.7893 13.238 29.018 14.1013 29.018 15.1C29.018 16.0893 28.7893 16.9527 28.332 17.69C27.8747 18.418 27.24 18.9873 26.428 19.398C25.616 19.7993 24.678 20 23.614 20H19.162ZM21.43 18.138H23.502C24.1553 18.138 24.72 18.0167 25.196 17.774C25.6813 17.522 26.0547 17.1673 26.316 16.71C26.5867 16.2527 26.722 15.716 26.722 15.1C26.722 14.4747 26.5867 13.938 26.316 13.49C26.0547 13.0327 25.6813 12.6827 25.196 12.44C24.72 12.188 24.1553 12.062 23.502 12.062H21.43V18.138ZM34.1584 20.112C33.3557 20.112 32.6417 19.944 32.0164 19.608C31.4004 19.272 30.9104 18.8147 30.5464 18.236C30.1917 17.648 30.0144 16.9807 30.0144 16.234C30.0144 15.478 30.1917 14.8107 30.5464 14.232C30.9104 13.644 31.4004 13.1867 32.0164 12.86C32.6417 12.524 33.3557 12.356 34.1584 12.356C34.9517 12.356 35.6611 12.524 36.2864 12.86C36.9117 13.1867 37.4017 13.6393 37.7564 14.218C38.1111 14.7967 38.2884 15.4687 38.2884 16.234C38.2884 16.9807 38.1111 17.648 37.7564 18.236C37.4017 18.8147 36.9117 19.272 36.2864 19.608C35.6611 19.944 34.9517 20.112 34.1584 20.112ZM34.1584 18.32C34.5224 18.32 34.8491 18.236 35.1384 18.068C35.4277 17.9 35.6564 17.662 35.8244 17.354C35.9924 17.0367 36.0764 16.6633 36.0764 16.234C36.0764 15.7953 35.9924 15.422 35.8244 15.114C35.6564 14.806 35.4277 14.568 35.1384 14.4C34.8491 14.232 34.5224 14.148 34.1584 14.148C33.7944 14.148 33.4677 14.232 33.1784 14.4C32.8891 14.568 32.6557 14.806 32.4784 15.114C32.3104 15.422 32.2264 15.7953 32.2264 16.234C32.2264 16.6633 32.3104 17.0367 32.4784 17.354C32.6557 17.662 32.8891 17.9 33.1784 18.068C33.4677 18.236 33.7944 18.32 34.1584 18.32ZM44.3262 12.356C44.9236 12.356 45.4556 12.4773 45.9222 12.72C46.3982 12.9533 46.7716 13.3173 47.0422 13.812C47.3129 14.2973 47.4482 14.9227 47.4482 15.688V20H45.2642V16.024C45.2642 15.4173 45.1289 14.9693 44.8582 14.68C44.5969 14.3907 44.2236 14.246 43.7382 14.246C43.3929 14.246 43.0802 14.3207 42.8002 14.47C42.5296 14.61 42.3149 14.8293 42.1562 15.128C42.0069 15.4267 41.9322 15.8093 41.9322 16.276V20H39.7482V12.468H41.8342V14.554L41.4422 13.924C41.7129 13.42 42.1002 13.0327 42.6042 12.762C43.1082 12.4913 43.6822 12.356 44.3262 12.356ZM53.2206 20.112C52.3619 20.112 51.6059 19.944 50.9526 19.608C50.3086 19.272 49.8093 18.8147 49.4546 18.236C49.0999 17.648 48.9226 16.9807 48.9226 16.234C48.9226 15.478 49.0953 14.8107 49.4406 14.232C49.7953 13.644 50.2759 13.1867 50.8826 12.86C51.4893 12.524 52.1753 12.356 52.9406 12.356C53.6779 12.356 54.3406 12.5147 54.9286 12.832C55.5259 13.14 55.9973 13.588 56.3426 14.176C56.6879 14.7547 56.8606 15.45 56.8606 16.262C56.8606 16.346 56.8559 16.444 56.8466 16.556C56.8373 16.6587 56.8279 16.7567 56.8186 16.85H50.7006V15.576H55.6706L54.8306 15.954C54.8306 15.562 54.7513 15.2213 54.5926 14.932C54.4339 14.6427 54.2146 14.4187 53.9346 14.26C53.6546 14.092 53.3279 14.008 52.9546 14.008C52.5813 14.008 52.2499 14.092 51.9606 14.26C51.6806 14.4187 51.4613 14.6473 51.3026 14.946C51.1439 15.2353 51.0646 15.5807 51.0646 15.982V16.318C51.0646 16.7287 51.1533 17.0927 51.3306 17.41C51.5173 17.718 51.7739 17.956 52.1006 18.124C52.4366 18.2827 52.8286 18.362 53.2766 18.362C53.6779 18.362 54.0279 18.3013 54.3266 18.18C54.6346 18.0587 54.9146 17.8767 55.1666 17.634L56.3286 18.894C55.9833 19.286 55.5493 19.5893 55.0266 19.804C54.5039 20.0093 53.9019 20.112 53.2206 20.112Z" fill="#004680"/>
</svg>
