<svg width="34" height="39" viewBox="0 0 34 39" fill="none" xmlns="http://www.w3.org/2000/svg">
<path d="M16.8621 31.8561C16.7408 31.8965 16.6599 31.937 16.5386 31.937C16.4173 31.937 16.3364 31.937 16.2151 31.8561L0 25.548V37.3959C0 38.0833 0.566114 38.6495 1.25354 38.6495H31.8641C32.5516 38.6495 33.1177 38.0833 33.1177 37.3959V25.548L16.8621 31.8561ZM0.323493 23.8092L3.39668 25.0223V21.0595L0.323493 23.8092ZM21.3506 13.2552C20.8653 13.2552 20.5014 12.8913 20.5014 12.406V5.93617H16.7408C16.7408 6.13835 16.7812 6.34053 16.7812 6.54272C16.7812 10.9908 13.1419 14.6301 8.69389 14.6301C7.39992 14.6301 6.18682 14.3066 5.09503 13.7809V25.7097L16.4982 30.1578L27.78 25.7502V13.2552H21.3506ZM23.4533 24.3349H9.50263C9.01739 24.3349 8.65346 23.9305 8.65346 23.4857C8.65346 23.0005 9.01739 22.6365 9.50263 22.6365H23.4533C23.9385 22.6365 24.3025 23.0409 24.3025 23.4857C24.3429 23.9305 23.9385 24.3349 23.4533 24.3349ZM23.4533 19.2803H9.50263C9.01739 19.2803 8.65346 18.8759 8.65346 18.4311C8.65346 17.9459 9.01739 17.5819 9.50263 17.5819H23.4533C23.9385 17.5819 24.3025 17.9459 24.3025 18.4311C24.3429 18.9163 23.9385 19.2803 23.4533 19.2803ZM8.73433 0.194153C5.21634 0.194153 2.38577 3.02472 2.38577 6.54272C2.38577 10.0607 5.21634 12.8913 8.73433 12.8913C12.2119 12.8913 15.0829 10.0607 15.0829 6.54272C15.0829 3.02472 12.2119 0.194153 8.73433 0.194153ZM11.6458 5.73398L8.57258 8.80717C8.41083 8.96892 8.16821 9.04979 7.96603 9.04979C7.72341 9.04979 7.52123 8.96892 7.35948 8.80717L5.66114 7.10883C5.33765 6.78534 5.33765 6.21922 5.66114 5.89573C5.98463 5.57224 6.55075 5.57224 6.87424 5.89573L7.9256 6.98752L10.3922 4.52088C10.7157 4.19739 11.2818 4.19739 11.6053 4.52088C11.9693 4.84437 11.9693 5.37005 11.6458 5.73398ZM22.2402 6.09791V11.5164H27.6991L22.2402 6.09791ZM29.5592 20.9786V25.0627L32.7537 23.8092L29.5592 20.9786Z" fill="#004680"/>
</svg>
