<svg width="65" height="69" viewBox="0 0 65 69" fill="none" xmlns="http://www.w3.org/2000/svg">
<mask id="mask0_1_19110" style="mask-type:luminance" maskUnits="userSpaceOnUse" x="0" y="0" width="65" height="69">
<path d="M0 0H65V68.2564H0V0Z" fill="white"/>
</mask>
<g mask="url(#mask0_1_19110)">
<path d="M74.1185 27.2873C72.275 27.2873 68.8438 27.6353 66.6251 30.0063L65.2547 31.4528V0L22.2954 14.1929V6.38408L14.8618 8.83658V16.6453L0 21.5558V68.2564H65.2547V60.8336H7.41729V26.9121L14.8618 24.4705V53.411H22.3498L22.7576 50.4038L23.8941 51.5839C25.2753 53.014 28.2444 53.971 31.2189 53.971C38.1359 53.971 42.9648 48.5658 42.9648 40.8277C42.9648 33.0896 38.1359 27.5701 31.2189 27.5701C27.8637 27.5701 25.3352 28.6088 23.6929 30.6588L22.2954 32.4261V22.0071L57.8319 10.2722V53.7754H65.2547V39.2615C65.2547 35.6019 68.0498 33.9324 70.6437 33.9324C73.3354 33.9324 76.0544 35.765 76.0544 39.2615V53.759H83.477V36.6841C83.477 30.5174 78.7624 27.2873 74.1076 27.2873H74.1185ZM28.9513 33.8726C32.9155 33.8726 35.678 36.7113 35.678 40.7678C35.678 44.8246 32.8503 47.6686 28.9513 47.6686C25.1449 47.6686 22.4259 44.7647 22.4259 40.7678C22.4259 36.771 25.1721 33.8726 28.9513 33.8726Z" fill="black"/>
<path d="M53.5861 37.6195H47.2074V43.9982H53.5861V37.6195Z" fill="black"/>
</g>
</svg>
