<svg width="88" height="88" viewBox="0 0 88 88" fill="none" xmlns="http://www.w3.org/2000/svg">
<path d="M43.75 0C19.5865 0 0 19.5886 0 43.75C0 67.9135 19.5865 87.5 43.75 87.5C67.9114 87.5 87.5 67.9135 87.5 43.75C87.5 19.5886 67.9114 0 43.75 0ZM63.3491 57.7366C64.7794 59.1647 64.7794 61.4822 63.3491 62.9124L62.9113 63.3523C61.4811 64.7804 59.1637 64.7804 57.7335 63.3523L43.75 49.3646L29.7634 63.3513C28.3353 64.7794 26.0178 64.7794 24.5876 63.3513L24.1477 62.9113C22.7196 61.4811 22.7196 59.1637 24.1477 57.7356L38.1354 43.75L24.1487 29.7655C22.7206 28.3353 22.7206 26.0178 24.1487 24.5876L24.5887 24.1498C26.0189 22.7196 28.3363 22.7196 29.7644 24.1498L43.75 38.1354L57.7345 24.1509C59.1647 22.7206 61.4822 22.7206 62.9124 24.1509L63.3502 24.5887C64.7804 26.0189 64.7804 28.3363 63.3502 29.7665L49.3646 43.75L63.3491 57.7366Z" fill="#FF0000"/>
</svg>
