<svg width="46" height="46" viewBox="0 0 46 46" fill="none" xmlns="http://www.w3.org/2000/svg">
<circle cx="23" cy="23" r="23" fill="white"/>
<path d="M34.52 11H11.48C11.216 11 11 11.216 11 11.48V15.7999C11 15.8311 11.0024 15.8599 11.0096 15.8911C11.012 15.9031 11.0168 15.9127 11.0192 15.9247C11.024 15.9415 11.0288 15.9607 11.036 15.9775C11.0408 15.9895 11.048 16.0015 11.0528 16.0135C11.06 16.0279 11.0672 16.0447 11.0768 16.0591C11.084 16.0711 11.0912 16.0807 11.0984 16.0903C11.1056 16.0975 11.1104 16.1071 11.1152 16.1143L19.64 26.0575V34.52C19.64 34.6856 19.7264 34.8416 19.868 34.928C19.9448 34.976 20.0336 35 20.12 35C20.1944 35 20.2664 34.9832 20.3336 34.9496L26.0936 32.0696C26.2568 31.988 26.36 31.8224 26.36 31.64V26.0575L34.8848 16.1119C34.9592 16.0255 35 15.9151 35 15.7999V11.48C35 11.216 34.784 11 34.52 11ZM34.04 15.6225L25.5152 25.5682C25.4408 25.6546 25.4 25.765 25.4 25.8802V31.3425L20.6 33.7425V25.88C20.6 25.7648 20.5592 25.6544 20.4848 25.568L12.524 16.2801H26.8402C27.1042 16.2801 27.3202 16.0641 27.3202 15.8001C27.3202 15.5361 27.1042 15.3201 26.8402 15.3201H11.96V11.9599H34.04V15.6225Z" fill="black"/>
</svg>
