<svg width="32" height="40" viewBox="0 0 32 40" fill="none" xmlns="http://www.w3.org/2000/svg">
<path d="M6.53651 32.6946C6.29738 32.6946 6.10234 32.5025 6.10234 32.267C6.10234 32.0315 6.29738 31.8394 6.53651 31.8394H25.4634C25.7025 31.8394 25.8976 32.0315 25.8976 32.267C25.8976 32.5025 25.7025 32.6946 25.4634 32.6946H6.53651ZM6.53651 27.6056C6.29738 27.6056 6.10234 27.4135 6.10234 27.178C6.10234 26.9425 6.29738 26.7505 6.53651 26.7505H25.4634C25.7025 26.7505 25.8976 26.9425 25.8976 27.178C25.8976 27.4135 25.7025 27.6056 25.4634 27.6056H6.53651ZM6.53651 22.5167C6.29738 22.5167 6.10234 22.3246 6.10234 22.0891C6.10234 21.8536 6.29738 21.6615 6.53651 21.6615H25.4634C25.7025 21.6615 25.8976 21.8536 25.8976 22.0891C25.8976 22.3246 25.7025 22.5167 25.4634 22.5167H6.53651ZM18.9154 8.1982C18.9154 8.4337 18.7203 8.62577 18.4812 8.62577C18.2421 8.62577 18.047 8.4337 18.047 8.1982C18.047 7.64035 17.8181 7.13595 17.4501 6.77354C17.0803 6.40776 16.5682 6.18396 16.0017 6.18396C15.4353 6.18396 14.9231 6.40944 14.5551 6.77187C14.1837 7.13597 13.9564 7.64035 13.9564 8.1982C13.9564 8.75605 14.1854 9.26046 14.5534 9.62287C14.9231 9.98864 15.4353 10.2124 16.0017 10.2124C16.8039 10.2124 17.5332 10.5331 18.0606 11.0525C18.5898 11.5753 18.9171 12.2918 18.9171 13.0818C18.9171 13.8718 18.5915 14.5883 18.064 15.1094C17.6299 15.5353 17.0668 15.8276 16.4376 15.9211V17.2824C16.4376 17.5179 16.2426 17.7099 16.0035 17.7099C15.7643 17.7099 15.5693 17.5179 15.5693 17.2824V15.9211C14.9401 15.8276 14.3754 15.5353 13.9446 15.1128C13.4154 14.59 13.0881 13.8735 13.0881 13.0835C13.0881 12.848 13.2831 12.6559 13.5223 12.6559C13.7614 12.6559 13.9564 12.848 13.9564 13.0835C13.9564 13.6413 14.1854 14.1457 14.5534 14.5082C14.9231 14.8739 15.4353 15.0977 16.0017 15.0977C16.5682 15.0977 17.0804 14.8723 17.4484 14.5098C17.8198 14.1457 18.047 13.6413 18.047 13.0835C18.047 12.5256 17.8181 12.0212 17.4501 11.6588C17.0803 11.2931 16.5682 11.0692 16.0017 11.0692C15.1995 11.0692 14.472 10.7486 13.9445 10.2292C13.4137 9.70637 13.0881 8.98822 13.0881 8.1982C13.0881 7.40818 13.4137 6.6917 13.9411 6.17225C14.3753 5.74635 14.94 5.45239 15.5692 5.36055V3.99933C15.5692 3.76384 15.7643 3.57176 16.0034 3.57176C16.2425 3.57176 16.4375 3.76384 16.4375 3.99933V5.36055C17.0667 5.45408 17.6298 5.74469 18.0606 6.16891C18.5914 6.6917 18.917 7.40985 18.917 8.19987L18.9154 8.1982ZM14.645 37.8977L15.1063 38.3519C15.3522 38.5941 15.6778 38.716 16.0017 38.716C16.3257 38.716 16.6496 38.5941 16.8972 38.3519L17.3585 37.8977C17.7757 37.4885 18.3218 37.2847 18.8662 37.2847C19.4106 37.2847 19.9567 37.4901 20.3722 37.8977L21.4 38.9065C21.6459 39.1486 21.9698 39.2706 22.2937 39.2706C22.6177 39.2706 22.9416 39.1486 23.1875 38.9065L24.2119 37.8977C24.6274 37.4885 25.1735 37.2847 25.7196 37.2847C26.264 37.2847 26.8118 37.4901 27.2273 37.8977L28.6502 39.2989C28.9572 39.5879 29.276 39.7666 29.5762 39.8417C29.8611 39.9119 30.1342 39.8902 30.3716 39.7849C30.6141 39.6781 30.8278 39.4776 30.9872 39.1987C31.1788 38.8613 31.2942 38.407 31.2942 37.8492V2.87183C31.2942 2.17369 30.8804 1.524 30.28 1.03126C29.5965 0.470079 28.6841 0.117676 27.8531 0.117676H4.14698C3.31595 0.117676 2.40355 0.470088 1.72009 1.03126C1.12143 1.52395 0.705933 2.17369 0.705933 2.87183V37.8492C0.705933 38.4071 0.821255 38.863 1.0129 39.1987C1.17232 39.4793 1.38601 39.6781 1.62854 39.7849C1.86597 39.8902 2.13903 39.9119 2.42393 39.8417C2.72581 39.7682 3.04296 39.5895 3.34822 39.3023L4.7711 37.8993C5.1883 37.4885 5.73442 37.283 6.28051 37.283C6.8266 37.283 7.37269 37.4868 7.78822 37.896L8.81259 38.9048C9.0585 39.147 9.38243 39.2689 9.70635 39.2689C10.0303 39.2689 10.3542 39.147 10.6001 38.9048L11.6262 37.896C12.0417 37.4868 12.5895 37.2814 13.1356 37.2814C13.6817 37.2814 14.2278 37.4868 14.6433 37.896L14.645 37.8977Z" fill="#004680"/>
</svg>
