<svg width="88" height="131" viewBox="0 0 88 131" fill="none" xmlns="http://www.w3.org/2000/svg">
<path d="M54.3986 0V54.0055V54.6507V54.8658H53.1119H52.2541L51.3963 55.2959L49.8951 55.9411L49.0373 56.3712L47.965 57.8767L47.3217 59.3822L46.8928 60.8877V63.2534V66.6945V68.6301L47.7506 70.1356L49.0373 71.211L50.9674 71.8562H54.3986H57.6154L59.1165 71.211L60.4033 70.5658L61.2611 69.0603L61.69 66.4795V63.2534L61.2611 60.8877L59.331 58.5219L57.6154 57.2315L55.4709 56.8014L52.2541 57.2315L50.324 58.5219L47.965 60.8877L46.4639 63.2534L46.2494 65.189V67.1247V69.4904L45.8205 70.7808L44.1049 72.5014L42.1748 73.5767L40.2448 74.437L38.1002 75.0822L35.7413 75.9425L33.5967 76.5877L30.8089 77.4479L28.4499 78.3082L25.8765 79.5986L23.5175 80.674L21.8019 81.9644L19.4429 83.4699L17.7273 85.1904L15.5828 87.3411L14.0816 89.0616L12.7949 90.9973L11.5082 92.7178L10.4359 94.2233L9.57809 96.1589L8.50583 98.0945L7.86247 99.1699L7.21911 100.46L6.14685 102.611L5.28904 105.407L4.64569 107.127L4.00233 108.848L3.35897 110.784L2.71562 112.719L2.07226 115.085L1.4289 117.666L1 120.247V121.752L3.35897 121.107L4.64569 120.677M4.64569 120.677L3.35897 121.752L2.71562 122.827L3.35897 123.903L5.71795 124.978L8.72028 126.053L12.1515 127.129L16.655 127.989L21.1585 128.849L25.0186 129.279L28.8788 129.71L31.4522 130.14H34.8834L39.6014 130.57L45.1772 131H51.3963H58.9021H64.9068L67.2657 130.785L69.6247 130.57L73.4848 130.14L79.2751 129.279L82.7063 128.849L86.352 127.989L88.4965 126.053L90.4266 124.548M4.64569 120.677L4.86014 120.462L5.71795 120.247M91.0699 123.903L90.4266 122.827L88.4965 121.107L85.2797 119.171H83.3496H80.3473L76.9161 118.741L74.3427 118.311L73.4848 118.096L72.4126 117.881L71.3403 117.666L70.2681 117.451L68.7669 117.236H67.9091H65.979H61.0466M61.0466 117.236H59.9744H54.1841H48.8228H46.2494H45.1772V118.741V119.601L45.8205 120.247L46.2494 120.892L47.1072 121.752L47.965 122.612L48.8228 123.042L49.6807 123.473L50.9674 123.903L52.4685 124.118H53.7552H55.042L56.1142 123.903L57.6154 123.473L58.9021 122.612L59.9744 121.752L61.0466 120.247L61.4755 119.171V118.096L61.0466 117.236ZM58.9021 115.73L60.1888 116.16L60.8322 117.021L58.9021 115.73ZM58.9021 115.73H58.0443H56.7576H55.042H52.683H49.8951H47.5361H45.8205H44.3193H42.8182H41.7459L40.6737 116.16L39.8158 116.375H38.7436H37.4569L35.9557 116.59H34.8834H33.5967H32.31L31.2378 116.805L29.3077 117.236H27.5921H26.0909L24.8042 117.451H23.5175L22.2308 117.666L20.5152 118.096H19.014H17.2984L16.4406 118.526L14.7249 118.741C14.296 118.884 13.3953 119.171 13.2238 119.171C13.0522 119.171 11.8656 119.171 11.2937 119.171L9.57809 119.601L8.29138 119.816L6.57576 120.247H5.71795M5.71795 120.247L6.79021 119.601L7.86247 119.171L9.14918 118.741L10.8648 118.526L11.7226 118.096L13.2238 117.666L15.1538 117.451L16.655 116.805L18.5851 116.59L20.3007 116.16L22.0163 115.945L23.5175 115.73L24.8042 115.3L26.7343 115.085H28.2354L29.5221 114.655H31.0233L32.0956 114.225L33.3823 114.01H35.5268H40.6737H53.1119H60.6177H65.979H68.7669L69.8392 114.225L70.697 114.655H71.9837H72.4126L73.2704 114.87L73.9137 115.085L74.986 115.3L76.2727 115.73L82.7063 116.16L88.4965 112.719L91.0699 104.116L93 92.7178L83.3496 79.5986L76.9161 76.5877L74.986 75.9425L71.9837 75.0822L69.6247 74.437L67.2657 73.5767L64.9068 72.5014L64.049 72.0712" stroke="#004680" stroke-width="1.5"/>
</svg>
