<svg width="29" height="39" viewBox="0 0 29 39" fill="none" xmlns="http://www.w3.org/2000/svg">
<path d="M13.131 0.0890092C6.57382 0.821724 1.38894 6.11838 0.786621 12.688C0.252609 18.5932 3.38838 23.8339 8.17586 26.3736C8.34352 26.4605 8.48012 26.5971 8.56085 26.771L13.9444 38.0039C14.2611 38.6683 15.205 38.6683 15.5216 38.0039L20.9052 26.771C20.9859 26.5971 21.1226 26.4605 21.2902 26.3736C25.7175 24.0264 28.7353 19.3631 28.7353 14.0044C28.7353 5.74581 21.5758 -0.848617 13.131 0.0890092ZM14.733 24.4611C8.96446 24.4611 4.27633 19.7729 4.27633 14.0044C4.27633 8.2358 8.96446 3.54767 14.733 3.54767C20.5016 3.54767 25.1897 8.2358 25.1897 14.0044C25.1897 19.7729 20.5016 24.4611 14.733 24.4611Z" fill="#004680"/>
<circle cx="14.5254" cy="14.1315" r="4.89605" fill="#004680"/>
</svg>
