<svg width="153" height="52" viewBox="0 0 153 52" fill="none" xmlns="http://www.w3.org/2000/svg">
<mask id="mask0_1_17720" style="mask-type:luminance" maskUnits="userSpaceOnUse" x="0" y="0" width="153" height="52">
<path d="M0 0H152.676V51.9064H0V0Z" fill="white"/>
</mask>
<g mask="url(#mask0_1_17720)">
<path d="M56.3643 20.751C54.9624 20.751 52.353 21.0156 50.6658 22.8187L49.6237 23.9186V0L16.9548 10.7932V4.85485L11.3018 6.71988V12.6582L0 16.3924V51.9064H49.6237V46.2617H5.64056V20.4657L11.3018 18.6089V40.617H16.9961L17.3063 38.3302L18.1705 39.2276C19.2209 40.3151 21.4788 41.0429 23.7408 41.0429C29.0009 41.0429 32.6731 36.9324 32.6731 31.0479C32.6731 25.1634 29.0009 20.966 23.7408 20.966C21.1893 20.966 19.2664 21.7559 18.0176 23.3149L16.9548 24.6588V16.7356L43.979 7.8116V40.8941H49.6237V29.8569C49.6237 27.0739 51.7493 25.8043 53.7218 25.8043C55.7687 25.8043 57.8364 27.1979 57.8364 29.8569V40.8816H63.4811V27.8968C63.4811 23.2073 59.8958 20.751 56.356 20.751H56.3643ZM22.0164 25.7588C25.031 25.7588 27.1317 27.9175 27.1317 31.0024C27.1317 34.0874 24.9814 36.2501 22.0164 36.2501C19.1217 36.2501 17.054 34.0419 17.054 31.0024C17.054 27.9629 19.1424 25.7588 22.0164 25.7588Z" fill="black"/>
<path d="M77.6194 20.7506C71.5612 20.7506 66.9917 25.1712 66.9917 31.0351C66.9917 36.8989 71.5653 41.3196 77.6236 41.3196C83.6818 41.3196 88.2556 36.8948 88.2556 31.0351C88.2556 25.1754 83.7066 20.7506 77.6236 20.7506H77.6194ZM77.6236 36.4648C74.6503 36.4648 72.5703 34.2317 72.5703 31.0392C72.5703 27.8467 74.6379 25.6137 77.6236 25.6137C80.6093 25.6137 82.6811 27.8427 82.6811 31.0392C82.6811 34.2358 80.6134 36.4648 77.6236 36.4648Z" fill="black"/>
<path d="M105.178 32.2552C105.178 34.6786 103.57 36.3037 101.171 36.3037C98.9751 36.3037 97.379 34.6 97.379 32.2552V21.1851H91.7385V32.888C91.7385 37.9289 95.5268 41.3198 101.171 41.3198C106.816 41.3198 110.827 37.7966 110.827 32.7556V21.1768H105.178V32.2552Z" fill="black"/>
<path d="M40.7502 28.6083H35.8994V33.459H40.7502V28.6083Z" fill="black"/>
<path d="M121.116 25.664C121.635 25.429 122.2 25.3105 122.77 25.3166C123.537 25.3148 124.295 25.4873 124.986 25.8211C125.656 26.1376 126.272 26.5561 126.814 27.0617L130.317 23.4433C129.311 22.5081 128.108 21.8101 126.798 21.4004C125.421 20.9482 123.983 20.7179 122.533 20.7181C121.582 20.7205 120.634 20.8456 119.713 21.0903C118.793 21.3239 117.917 21.7112 117.125 22.2358C116.348 22.7541 115.697 23.4393 115.218 24.2414C114.703 25.147 114.446 26.1772 114.478 27.2188C114.456 28.026 114.63 28.8267 114.987 29.5511C115.304 30.1857 115.747 30.7487 116.289 31.2053C116.831 31.651 117.441 32.0058 118.096 32.2556C118.756 32.5108 119.434 32.718 120.123 32.8759C121.113 33.0856 122.083 33.3861 123.018 33.7733C123.292 33.869 123.529 34.048 123.697 34.2852C123.865 34.5225 123.954 34.8061 123.952 35.0966C123.974 35.3594 123.917 35.6226 123.789 35.853C123.661 36.0835 123.467 36.2707 123.233 36.3909C122.756 36.6313 122.229 36.7573 121.694 36.759C120.776 36.7626 119.869 36.55 119.048 36.1387C118.258 35.7526 117.545 35.2241 116.948 34.5797L113.366 38.3552C114.444 39.3813 115.742 40.1466 117.162 40.5924C118.655 41.0932 120.219 41.3502 121.794 41.3534C122.791 41.3507 123.784 41.2328 124.754 41.0019C125.702 40.7843 126.603 40.4022 127.418 39.8729C128.273 39.3261 128.971 38.5636 129.439 37.662C129.908 36.7605 130.13 35.7517 130.085 34.7368C130.108 33.8989 129.92 33.0687 129.539 32.3218C129.185 31.6536 128.696 31.0674 128.1 30.6016C127.491 30.1282 126.815 29.7477 126.094 29.4726C125.381 29.194 124.647 28.9727 123.899 28.811C122.977 28.623 122.073 28.3616 121.194 28.0293C120.947 27.9554 120.73 27.8036 120.576 27.5965C120.421 27.3894 120.338 27.138 120.338 26.8798C120.325 26.6247 120.391 26.3717 120.527 26.1556C120.664 25.9395 120.863 25.7707 121.099 25.6723" fill="black"/>
<path d="M151.092 24.8456C149.343 22.2527 146.486 20.7103 142.946 20.7103C136.999 20.7103 132.512 25.1392 132.512 31.0155C132.512 37.1109 136.92 41.3538 143.235 41.3538C146.461 41.3538 149.554 40.3985 151.369 38.8725L148.797 34.9978C147.59 35.9944 145.382 36.6022 143.942 36.6022C140.754 36.6022 139.162 34.8406 138.74 33.1865L138.682 32.955H152.494C153.032 29.5268 152.321 26.6486 151.092 24.8373V24.8456ZM138.616 28.9726L138.653 28.7535C139.175 25.7223 142.069 25.4866 142.946 25.4866C146.609 25.4866 147.188 27.9967 147.28 28.7617L147.304 28.9726H138.616Z" fill="black"/>
</g>
</svg>
