<svg width="143" height="153" viewBox="0 0 143 153" fill="none" xmlns="http://www.w3.org/2000/svg">
<path d="M142.302 45.0194L98.0481 0.700323C97.6007 0.252369 96.9927 0 96.361 0H46.2342C34.5673 0 25.076 9.50325 25.076 21.1863V63.1158H6.50609C2.91907 63.1158 0 66.0385 0 69.6301V107.078C0 110.67 2.91907 113.593 6.50609 113.593H25.076V131.814C25.076 143.495 34.5673 153 46.2342 153H121.842C133.509 153 143 143.497 143 131.814V46.7071C143.002 46.0746 142.75 45.4673 142.302 45.0194ZM98.746 8.15624L134.856 44.3191H101.133C99.8172 44.3191 98.7476 43.2433 98.7476 41.9216L98.746 8.15624ZM4.77165 107.078V69.6301C4.77165 68.6884 5.56562 67.8934 6.50609 67.8934H108.458C109.414 67.8934 110.192 68.6726 110.192 69.6301V107.078C110.192 108.036 109.414 108.815 108.458 108.815H6.50609C5.56562 108.815 4.77165 108.02 4.77165 107.078ZM121.842 148.221H46.2342C37.1981 148.221 29.8477 140.861 29.8477 131.814V113.593H108.458C112.045 113.593 114.964 110.67 114.964 107.078V69.6301C114.964 66.0385 112.045 63.1158 108.458 63.1158H29.8477V21.1863C29.8477 12.1389 37.1997 4.77923 46.2342 4.77923H93.9743V41.9231C93.9743 45.879 97.1849 49.0983 101.131 49.0983H138.228V131.815C138.23 140.861 130.878 148.221 121.842 148.221ZM31.5396 73.1538H23.8488C22.5319 73.1538 21.4638 74.2232 21.4638 75.5434V88.1649V91.2643V101.175C21.4638 102.493 22.5319 103.564 23.8488 103.564C25.1658 103.564 26.2339 102.495 26.2339 101.175V93.6524H31.538C37.0941 93.6524 41.6137 89.1271 41.6137 83.564V83.2422C41.6153 77.679 37.0957 73.1538 31.5396 73.1538ZM36.8437 83.564C36.8437 86.493 34.4634 88.8747 31.5396 88.8747H26.2354V88.1634V77.9314H31.5396C34.4649 77.9314 36.8437 80.3131 36.8437 83.2422V83.564ZM57.2504 73.1538H49.5597C48.2427 73.1538 47.1746 74.2232 47.1746 75.5434V101.176C47.1746 102.495 48.2427 103.566 49.5597 103.566H57.2504C62.8066 103.566 67.3262 99.0405 67.3262 93.4773V83.2453C67.3262 77.679 62.805 73.1538 57.2504 73.1538ZM62.5545 93.4741C62.5545 96.4032 60.1742 98.7849 57.2504 98.7849H51.9463V77.9314H57.2504C60.1758 77.9314 62.5545 80.3131 62.5545 83.2422V93.4741ZM93.5096 75.5418C93.5096 76.8604 92.4416 77.9314 91.1246 77.9314H78.1297V84.5545H89.2216C90.5386 84.5545 91.6066 85.6239 91.6066 86.9441C91.6066 88.2627 90.5386 89.3337 89.2216 89.3337H78.1297V101.176C78.1297 102.495 77.0617 103.566 75.7447 103.566C74.4277 103.566 73.3597 102.496 73.3597 101.176V75.5418C73.3597 74.2232 74.4277 73.1522 75.7447 73.1522H91.1246C92.4416 73.1537 93.5096 74.2232 93.5096 75.5418Z" fill="#004680"/>
</svg>
