<svg width="403" height="430" viewBox="0 0 403 430" fill="none" xmlns="http://www.w3.org/2000/svg">
<rect width="403" height="430" fill="#F0F0F0"/>
<path d="M265.302 183.019L221.048 138.7C220.601 138.252 219.993 138 219.361 138H169.234C157.567 138 148.076 147.503 148.076 159.186V201.116H129.506C125.919 201.116 123 204.039 123 207.63V245.078C123 248.67 125.919 251.593 129.506 251.593H148.076V269.814C148.076 281.495 157.567 291 169.234 291H244.842C256.509 291 266 281.497 266 269.814V184.707C266.002 184.075 265.75 183.467 265.302 183.019ZM221.746 146.156L257.856 182.319H224.133C222.817 182.319 221.748 181.243 221.748 179.922L221.746 146.156ZM127.772 245.078V207.63C127.772 206.688 128.566 205.893 129.506 205.893H231.458C232.414 205.893 233.192 206.673 233.192 207.63V245.078C233.192 246.036 232.414 246.815 231.458 246.815H129.506C128.566 246.815 127.772 246.02 127.772 245.078ZM244.842 286.221H169.234C160.198 286.221 152.848 278.861 152.848 269.814V251.593H231.458C235.045 251.593 237.964 248.67 237.964 245.078V207.63C237.964 204.039 235.045 201.116 231.458 201.116H152.848V159.186C152.848 150.139 160.2 142.779 169.234 142.779H216.974V179.923C216.974 183.879 220.185 187.098 224.131 187.098H261.228V269.815C261.23 278.861 253.878 286.221 244.842 286.221ZM154.54 211.154H146.849C145.532 211.154 144.464 212.223 144.464 213.543V226.165V229.264V239.175C144.464 240.493 145.532 241.564 146.849 241.564C148.166 241.564 149.234 240.495 149.234 239.175V231.652H154.538C160.094 231.652 164.614 227.127 164.614 221.564V221.242C164.615 215.679 160.096 211.154 154.54 211.154ZM159.844 221.564C159.844 224.493 157.463 226.875 154.54 226.875H149.235V226.163V215.931H154.54C157.465 215.931 159.844 218.313 159.844 221.242V221.564ZM180.25 211.154H172.56C171.243 211.154 170.175 212.223 170.175 213.543V239.176C170.175 240.495 171.243 241.566 172.56 241.566H180.25C185.807 241.566 190.326 237.04 190.326 231.477V221.245C190.326 215.679 185.805 211.154 180.25 211.154ZM185.555 231.474C185.555 234.403 183.174 236.785 180.25 236.785H174.946V215.931H180.25C183.176 215.931 185.555 218.313 185.555 221.242V231.474ZM216.51 213.542C216.51 214.86 215.442 215.931 214.125 215.931H201.13V222.554H212.222C213.539 222.554 214.607 223.624 214.607 224.944C214.607 226.263 213.539 227.334 212.222 227.334H201.13V239.176C201.13 240.495 200.062 241.566 198.745 241.566C197.428 241.566 196.36 240.496 196.36 239.176V213.542C196.36 212.223 197.428 211.152 198.745 211.152H214.125C215.442 211.154 216.51 212.223 216.51 213.542Z" fill="#004680"/>
</svg>
