<svg width="66" height="66" viewBox="0 0 66 66" fill="none" xmlns="http://www.w3.org/2000/svg">
<circle cx="33" cy="33" r="30.5" fill="#004680" stroke="white" stroke-width="5"/>
<path d="M33.4828 17.5518C34.5826 17.5518 35.4742 18.4433 35.4742 19.5431V31.4914H47.4224C48.5223 31.4914 49.4138 32.383 49.4138 33.4828C49.4138 34.5826 48.5223 35.4742 47.4224 35.4742H35.4742V47.4224C35.4742 48.5223 34.5826 49.4138 33.4828 49.4138C32.383 49.4138 31.4914 48.5223 31.4914 47.4224V35.4742H19.5431C18.4433 35.4742 17.5518 34.5826 17.5518 33.4828C17.5518 32.383 18.4433 31.4914 19.5431 31.4914H31.4914V19.5431C31.4914 18.4433 32.383 17.5518 33.4828 17.5518Z" fill="white"/>
</svg>
