<svg width="198" height="179" viewBox="0 0 198 179" fill="none" xmlns="http://www.w3.org/2000/svg">
<path d="M168.521 21.6502C145.089 21.6176 122.217 14.485 102.921 1.19273C101.786 0.415767 100.443 0 99.0677 0C97.6925 0 96.3495 0.415767 95.2149 1.19273C75.9757 14.4456 53.1811 21.5763 29.8192 21.6502C28.0106 21.6502 26.2761 22.3687 24.9973 23.6475C23.7184 24.9263 23 26.6608 23 28.4694C23 88.3416 50.6858 144.395 95.2149 174.536C96.3425 175.298 97.6725 175.705 99.0336 175.705C100.395 175.705 101.725 175.298 102.852 174.536C147.586 144.531 175.34 88.5462 175.34 28.4694C175.34 26.6608 174.622 24.9263 173.343 23.6475C172.064 22.3687 170.329 21.6502 168.521 21.6502ZM99.17 160.625C62.142 133.348 38.7523 86.2958 36.8429 35.1521C59.0109 33.8538 80.4731 26.8798 99.17 14.8992C117.887 26.9742 139.4 34.02 161.633 35.3567C159.724 86.4322 136.198 133.621 99.17 160.625Z" fill="#004680"/>
<path fill-rule="evenodd" clip-rule="evenodd" d="M77.2279 75.8224H76.1933C74.4292 75.8224 73 77.2616 73 79.0418V112.781C73 114.558 74.4292 116 76.1933 116H122.807C124.571 116 126 114.558 126 112.781V79.0418C126 77.2616 124.571 75.8224 122.807 75.8224H121.739C121.76 75.7289 121.772 75.6323 121.772 75.5358V68.4725C121.772 56.0629 111.801 46 99.5027 46H99.4967C93.5915 46 87.9256 48.3685 83.7517 52.5805C79.5747 56.7956 77.2276 62.5129 77.2276 68.4721L77.2279 75.8224ZM76.1933 78.2362H122.807C123.249 78.2362 123.608 78.5952 123.608 79.0418V112.781C123.608 113.224 123.249 113.586 122.807 113.586H76.1933C75.7508 113.586 75.392 113.224 75.392 112.781V79.0418C75.392 78.5952 75.7508 78.2362 76.1933 78.2362ZM106.036 85.6796C100.149 82.4693 92.7489 84.5542 89.3817 90.4408C85.9552 96.43 87.9914 104.103 93.9265 107.557C99.8646 111.018 107.465 108.963 110.892 102.971C112.452 100.241 112.88 97.1631 112.321 94.2909C112.192 93.6392 111.561 93.2138 110.916 93.3405C110.27 93.4702 109.845 94.1038 109.971 94.7585C110.425 97.0758 110.078 99.562 108.82 101.765C106.051 106.601 99.9152 108.261 95.1221 105.467C90.3322 102.679 88.6877 96.4843 91.4534 91.6475C94.2191 86.8109 100.358 85.1545 105.151 87.9453L105.157 87.9484L103.034 88.4673C102.391 88.6242 101.999 89.279 102.155 89.9246C102.31 90.5733 102.956 90.9716 103.596 90.8147L108.228 89.6802C108.87 89.5233 109.265 88.8715 109.11 88.2229L107.985 83.5492C107.83 82.9035 107.184 82.5052 106.541 82.6621C105.901 82.819 105.507 83.4738 105.662 84.1194L106.036 85.6796ZM119.414 75.8222C119.393 75.7286 119.381 75.6321 119.381 75.5355V68.4722C119.381 57.3959 110.482 48.4135 99.5031 48.4135H99.4971C94.2258 48.4135 89.1699 50.5286 85.4414 54.2881C81.7129 58.0506 79.6199 63.153 79.6199 68.4718V75.8218H84.1916V68.5141C84.1916 64.4167 85.8033 60.4849 88.6736 57.5884C91.544 54.6918 95.4399 53.0655 99.5007 53.0655C103.561 53.0655 107.457 54.6918 110.328 57.5884C113.198 60.4849 114.81 64.4163 114.81 68.5141V75.8218L119.414 75.8222ZM112.417 75.8222V68.5145C112.417 65.0567 111.057 61.7408 108.635 59.2965C106.213 56.8526 102.927 55.4798 99.5 55.4798C96.0732 55.4798 92.7875 56.8526 90.3653 59.2965C87.9434 61.7405 86.583 65.0564 86.583 68.5145V75.8222H112.417Z" fill="black" stroke="black" stroke-width="1.3"/>
<rect x="0.5" y="104.5" width="197" height="45" rx="13.5" fill="white" stroke="#1164A8"/>
<path d="M22.9192 138.512V132.89C22.9192 132.457 22.9409 132.023 22.9842 131.59C23.0492 131.135 23.1467 130.723 23.2767 130.355C22.9951 130.658 22.6809 130.929 22.3342 131.167C21.9876 131.406 21.6192 131.644 21.2292 131.882L16.4842 134.645L14.1442 130.777L18.8892 128.015C19.3009 127.777 19.7126 127.571 20.1242 127.397C20.5359 127.224 20.9584 127.094 21.3917 127.007C20.9584 126.921 20.5359 126.791 20.1242 126.617C19.7126 126.422 19.3009 126.206 18.8892 125.967L14.1442 123.14L16.4842 119.24L21.2292 122.1C21.6192 122.338 21.9876 122.587 22.3342 122.847C22.7026 123.086 23.0276 123.357 23.3092 123.66C23.0492 122.923 22.9192 122.089 22.9192 121.157V115.47H27.6642V121.092C27.6642 121.547 27.6317 121.992 27.5667 122.425C27.5234 122.858 27.4367 123.27 27.3067 123.66C27.5884 123.357 27.9026 123.086 28.2492 122.847C28.5959 122.587 28.9642 122.338 29.3542 122.1L34.0992 119.305L36.4392 123.205L31.6942 125.967C31.2609 126.206 30.8384 126.412 30.4267 126.585C30.0151 126.758 29.5926 126.888 29.1592 126.975C29.5926 127.062 30.0151 127.202 30.4267 127.397C30.8601 127.571 31.2826 127.777 31.6942 128.015L36.4392 130.843L34.0992 134.71L29.3542 131.882C28.9426 131.644 28.5634 131.406 28.2167 131.167C27.8701 130.907 27.5451 130.626 27.2417 130.322C27.5234 131.081 27.6642 131.915 27.6642 132.825V138.512H22.9192ZM71.6946 138.512V132.89C71.6946 132.457 71.7163 132.023 71.7596 131.59C71.8246 131.135 71.9221 130.723 72.0521 130.355C71.7704 130.658 71.4563 130.929 71.1096 131.167C70.7629 131.406 70.3946 131.644 70.0046 131.882L65.2596 134.645L62.9196 130.777L67.6646 128.015C68.0763 127.777 68.4879 127.571 68.8996 127.397C69.3113 127.224 69.7338 127.094 70.1671 127.007C69.7338 126.921 69.3113 126.791 68.8996 126.617C68.4879 126.422 68.0763 126.206 67.6646 125.967L62.9196 123.14L65.2596 119.24L70.0046 122.1C70.3946 122.338 70.7629 122.587 71.1096 122.847C71.4779 123.086 71.8029 123.357 72.0846 123.66C71.8246 122.923 71.6946 122.089 71.6946 121.157V115.47H76.4396V121.092C76.4396 121.547 76.4071 121.992 76.3421 122.425C76.2988 122.858 76.2121 123.27 76.0821 123.66C76.3638 123.357 76.6779 123.086 77.0246 122.847C77.3713 122.587 77.7396 122.338 78.1296 122.1L82.8746 119.305L85.2146 123.205L80.4696 125.967C80.0363 126.206 79.6138 126.412 79.2021 126.585C78.7904 126.758 78.3679 126.888 77.9346 126.975C78.3679 127.062 78.7904 127.202 79.2021 127.397C79.6354 127.571 80.0579 127.777 80.4696 128.015L85.2146 130.843L82.8746 134.71L78.1296 131.882C77.7179 131.644 77.3388 131.406 76.9921 131.167C76.6454 130.907 76.3204 130.626 76.0171 130.322C76.2988 131.081 76.4396 131.915 76.4396 132.825V138.512H71.6946ZM120.47 138.512V132.89C120.47 132.457 120.492 132.023 120.535 131.59C120.6 131.135 120.698 130.723 120.828 130.355C120.546 130.658 120.232 130.929 119.885 131.167C119.538 131.406 119.17 131.644 118.78 131.882L114.035 134.645L111.695 130.777L116.44 128.015C116.852 127.777 117.263 127.571 117.675 127.397C118.087 127.224 118.509 127.094 118.943 127.007C118.509 126.921 118.087 126.791 117.675 126.617C117.263 126.422 116.852 126.206 116.44 125.967L111.695 123.14L114.035 119.24L118.78 122.1C119.17 122.338 119.538 122.587 119.885 122.847C120.253 123.086 120.578 123.357 120.86 123.66C120.6 122.923 120.47 122.089 120.47 121.157V115.47H125.215V121.092C125.215 121.547 125.183 121.992 125.118 122.425C125.074 122.858 124.988 123.27 124.858 123.66C125.139 123.357 125.453 123.086 125.8 122.847C126.147 122.587 126.515 122.338 126.905 122.1L131.65 119.305L133.99 123.205L129.245 125.967C128.812 126.206 128.389 126.412 127.978 126.585C127.566 126.758 127.143 126.888 126.71 126.975C127.143 127.062 127.566 127.202 127.978 127.397C128.411 127.571 128.833 127.777 129.245 128.015L133.99 130.843L131.65 134.71L126.905 131.882C126.493 131.644 126.114 131.406 125.768 131.167C125.421 130.907 125.096 130.626 124.793 130.322C125.074 131.081 125.215 131.915 125.215 132.825V138.512H120.47ZM169.245 138.512V132.89C169.245 132.457 169.267 132.023 169.31 131.59C169.375 131.135 169.473 130.723 169.603 130.355C169.321 130.658 169.007 130.929 168.66 131.167C168.314 131.406 167.945 131.644 167.555 131.882L162.81 134.645L160.47 130.777L165.215 128.015C165.627 127.777 166.039 127.571 166.45 127.397C166.862 127.224 167.285 127.094 167.718 127.007C167.285 126.921 166.862 126.791 166.45 126.617C166.039 126.422 165.627 126.206 165.215 125.967L160.47 123.14L162.81 119.24L167.555 122.1C167.945 122.338 168.314 122.587 168.66 122.847C169.029 123.086 169.354 123.357 169.635 123.66C169.375 122.923 169.245 122.089 169.245 121.157V115.47H173.99V121.092C173.99 121.547 173.958 121.992 173.893 122.425C173.85 122.858 173.763 123.27 173.633 123.66C173.915 123.357 174.229 123.086 174.575 122.847C174.922 122.587 175.29 122.338 175.68 122.1L180.425 119.305L182.765 123.205L178.02 125.967C177.587 126.206 177.165 126.412 176.753 126.585C176.341 126.758 175.919 126.888 175.485 126.975C175.919 127.062 176.341 127.202 176.753 127.397C177.186 127.571 177.609 127.777 178.02 128.015L182.765 130.843L180.425 134.71L175.68 131.882C175.269 131.644 174.89 131.406 174.543 131.167C174.196 130.907 173.871 130.626 173.568 130.322C173.85 131.081 173.99 131.915 173.99 132.825V138.512H169.245Z" fill="black"/>
</svg>
