<svg width="42" height="42" viewBox="0 0 42 42" fill="none" xmlns="http://www.w3.org/2000/svg">
<circle cx="21" cy="21" r="19" fill="#F5F5F5" stroke="white" stroke-width="3"/>
<path fill-rule="evenodd" clip-rule="evenodd" d="M30.4136 17.0068L20.1552 27.3092C19.8491 27.6167 19.4511 27.8161 19.0223 27.8781L15.4316 28.3934C15.2239 28.4236 15.0136 28.3532 14.8651 28.204C14.7166 28.0549 14.6466 27.8438 14.6766 27.6351L15.1897 24.029C15.2506 23.5984 15.45 23.1996 15.7561 22.8912L26.0145 12.5888C26.7962 11.8037 28.0643 11.8037 28.8461 12.5888L30.4137 14.1632C31.1954 14.9483 31.1953 16.2217 30.4136 17.0068ZM24.4291 16.0768L16.6996 23.8389C16.5978 23.942 16.531 24.0744 16.511 24.2185L16.1239 26.94L18.8338 26.5512C18.9773 26.5311 19.1091 26.4641 19.2117 26.3618L26.9413 18.5991L24.43 16.077L24.4291 16.0768ZM27.884 17.6511L29.4691 16.0592C29.7303 15.7977 29.7303 15.373 29.4691 15.1115L27.9015 13.5372C27.6404 13.2758 27.2182 13.2758 26.9571 13.5372L25.3719 15.1291L27.8832 17.6512L27.884 17.6511ZM12.6674 31C12.2987 31 12 30.7001 12 30.3297C12 29.9594 12.2987 29.6594 12.6674 29.6594H24.0137C24.3825 29.6594 24.6812 29.9594 24.6812 30.3297C24.6812 30.7001 24.3825 31 24.0137 31H12.6674Z" fill="black"/>
</svg>
