<svg width="46" height="46" viewBox="0 0 46 46" fill="none" xmlns="http://www.w3.org/2000/svg">
<circle cx="23" cy="23" r="23" fill="white"/>
<path d="M26.4982 21C26.7745 21 27 20.8027 27 20.5609C27 16.9428 23.6368 14 19.5018 14C19.2255 14 19 14.1973 19 14.4391C19 14.6808 19.2255 14.8781 19.5018 14.8781C23.0842 14.8781 25.9964 17.4264 25.9964 20.5609C25.9964 20.8027 26.2187 21 26.4982 21Z" fill="#26211F"/>
<path d="M28.3419 25.6568C29.3289 24.1626 29.9078 22.3774 29.9078 20.4542C29.9078 15.2395 25.6661 11 20.4524 11C15.2417 11 11 15.2395 11 20.4542C11 25.6688 15.2417 29.9114 20.4554 29.9114C22.3783 29.9114 24.1662 29.3323 25.6601 28.3422L31.7617 34.4419C32.1157 34.802 32.5926 35 33.1056 35C33.6126 35 34.0866 34.802 34.4465 34.4449C35.1845 33.7068 35.1845 32.5037 34.4465 31.7626L28.3419 25.6568ZM20.4554 28.9632C15.7667 28.9632 11.9509 25.1468 11.9509 20.4572C11.9509 15.7676 15.7667 11.9511 20.4554 11.9511C25.1441 11.9511 28.9599 15.7676 28.9599 20.4572C28.9599 25.1468 25.1441 28.9632 20.4554 28.9632ZM33.7746 33.7728C33.4116 34.1359 32.7876 34.1329 32.4337 33.7728L26.431 27.7721C26.923 27.37 27.37 26.92 27.772 26.4309L33.7716 32.4317C34.1436 32.8007 34.1436 33.4008 33.7746 33.7728Z" fill="#26211F"/>
</svg>
