<svg width="24" height="24" viewBox="0 0 24 24" fill="none" xmlns="http://www.w3.org/2000/svg">
<path d="M16.0673 9.92321C16.3283 9.92321 16.5414 9.71018 16.5414 9.44915C16.5414 5.54258 13.3639 2.36511 9.45735 2.36511C9.19631 2.36511 8.98328 2.57814 8.98328 2.83918C8.98328 3.10022 9.19631 3.31325 9.45735 3.31325C12.8418 3.31325 15.5932 6.06465 15.5932 9.44915C15.5932 9.71018 15.8033 9.92321 16.0673 9.92321Z" fill="#26211F"/>
<path d="M17.3455 14.6519C18.3327 13.1577 18.9118 11.3724 18.9118 9.44913C18.9118 4.23437 14.6691 -0.00524902 9.45438 -0.00524902C4.24262 -0.00524902 0 4.23437 0 9.44913C0 14.6639 4.24262 18.9065 9.45738 18.9065C11.3807 18.9065 13.1689 18.3274 14.6631 17.3373L20.766 23.4372C21.1201 23.7972 21.5972 23.9953 22.1102 23.9953C22.6173 23.9953 23.0914 23.7972 23.4514 23.4402C24.1895 22.7021 24.1895 21.4989 23.4514 20.7578L17.3455 14.6519ZM9.45738 17.9584C4.7677 17.9584 0.951139 14.1418 0.951139 9.45213C0.951139 4.76245 4.7677 0.94589 9.45738 0.94589C14.1471 0.94589 17.9636 4.76245 17.9636 9.45213C17.9636 14.1418 14.1471 17.9584 9.45738 17.9584ZM22.7793 22.7681C22.4163 23.1311 21.7922 23.1281 21.4381 22.7681L15.4343 16.7672C15.9263 16.3651 16.3734 15.9151 16.7754 15.426L22.7763 21.4269C23.1484 21.7959 23.1484 22.396 22.7793 22.7681Z" fill="#26211F"/>
</svg>
