<svg width="76" height="30" viewBox="0 0 76 30" fill="none" xmlns="http://www.w3.org/2000/svg">
<rect width="76" height="30" rx="8" fill="#010101"/>
<path d="M24.382 20.168C23.598 20.168 22.8467 20.0653 22.128 19.86C21.4093 19.6453 20.8307 19.37 20.392 19.034L21.162 17.326C21.582 17.6247 22.0767 17.872 22.646 18.068C23.2247 18.2547 23.808 18.348 24.396 18.348C24.844 18.348 25.2033 18.306 25.474 18.222C25.754 18.1287 25.9593 18.0027 26.09 17.844C26.2207 17.6853 26.286 17.5033 26.286 17.298C26.286 17.0367 26.1833 16.8313 25.978 16.682C25.7727 16.5233 25.502 16.3973 25.166 16.304C24.83 16.2013 24.4567 16.108 24.046 16.024C23.6447 15.9307 23.2387 15.8187 22.828 15.688C22.4267 15.5573 22.058 15.3893 21.722 15.184C21.386 14.9787 21.1107 14.708 20.896 14.372C20.6907 14.036 20.588 13.6067 20.588 13.084C20.588 12.524 20.7373 12.0153 21.036 11.558C21.344 11.0913 21.8013 10.7227 22.408 10.452C23.024 10.172 23.794 10.032 24.718 10.032C25.334 10.032 25.9407 10.1067 26.538 10.256C27.1353 10.396 27.6627 10.6107 28.12 10.9L27.42 12.622C26.9627 12.3607 26.5053 12.1693 26.048 12.048C25.5907 11.9173 25.1427 11.852 24.704 11.852C24.2653 11.852 23.906 11.9033 23.626 12.006C23.346 12.1087 23.1453 12.244 23.024 12.412C22.9027 12.5707 22.842 12.7573 22.842 12.972C22.842 13.224 22.9447 13.4293 23.15 13.588C23.3553 13.7373 23.626 13.8587 23.962 13.952C24.298 14.0453 24.6667 14.1387 25.068 14.232C25.4787 14.3253 25.8847 14.4327 26.286 14.554C26.6967 14.6753 27.07 14.8387 27.406 15.044C27.742 15.2493 28.0127 15.52 28.218 15.856C28.4327 16.192 28.54 16.6167 28.54 17.13C28.54 17.6807 28.386 18.1847 28.078 18.642C27.77 19.0993 27.308 19.468 26.692 19.748C26.0853 20.028 25.3153 20.168 24.382 20.168ZM33.0157 20.112C32.1291 20.112 31.4384 19.888 30.9437 19.44C30.4491 18.9827 30.2017 18.306 30.2017 17.41V10.802H32.3857V17.382C32.3857 17.6993 32.4697 17.9467 32.6377 18.124C32.8057 18.292 33.0344 18.376 33.3237 18.376C33.6691 18.376 33.9631 18.2827 34.2057 18.096L34.7937 19.636C34.5697 19.7947 34.2991 19.916 33.9817 20C33.6737 20.0747 33.3517 20.112 33.0157 20.112ZM29.0397 14.316V12.636H34.2617V14.316H29.0397ZM40.6397 20V18.53L40.4997 18.208V15.576C40.4997 15.1093 40.3551 14.7453 40.0657 14.484C39.7857 14.2227 39.3517 14.092 38.7637 14.092C38.3624 14.092 37.9657 14.1573 37.5737 14.288C37.1911 14.4093 36.8644 14.5773 36.5937 14.792L35.8097 13.266C36.2204 12.9767 36.7151 12.7527 37.2937 12.594C37.8724 12.4353 38.4604 12.356 39.0577 12.356C40.2057 12.356 41.0971 12.6267 41.7317 13.168C42.3664 13.7093 42.6837 14.554 42.6837 15.702V20H40.6397ZM38.3437 20.112C37.7557 20.112 37.2517 20.014 36.8317 19.818C36.4117 19.6127 36.0897 19.3373 35.8657 18.992C35.6417 18.6467 35.5297 18.2593 35.5297 17.83C35.5297 17.382 35.6371 16.99 35.8517 16.654C36.0757 16.318 36.4257 16.0567 36.9017 15.87C37.3777 15.674 37.9984 15.576 38.7637 15.576H40.7657V16.85H39.0017C38.4884 16.85 38.1337 16.934 37.9377 17.102C37.7511 17.27 37.6577 17.48 37.6577 17.732C37.6577 18.012 37.7651 18.236 37.9797 18.404C38.2037 18.5627 38.5071 18.642 38.8897 18.642C39.2537 18.642 39.5804 18.558 39.8697 18.39C40.1591 18.2127 40.3691 17.956 40.4997 17.62L40.8357 18.628C40.6771 19.1133 40.3877 19.482 39.9677 19.734C39.5477 19.986 39.0064 20.112 38.3437 20.112ZM44.6603 20V12.468H46.7463V14.596L46.4523 13.98C46.6763 13.448 47.0357 13.0467 47.5303 12.776C48.025 12.496 48.627 12.356 49.3363 12.356V14.372C49.243 14.3627 49.159 14.358 49.0843 14.358C49.0097 14.3487 48.9303 14.344 48.8463 14.344C48.249 14.344 47.7637 14.5167 47.3903 14.862C47.0263 15.198 46.8443 15.7253 46.8443 16.444V20H44.6603ZM53.9747 20.112C53.0881 20.112 52.3974 19.888 51.9027 19.44C51.4081 18.9827 51.1607 18.306 51.1607 17.41V10.802H53.3447V17.382C53.3447 17.6993 53.4287 17.9467 53.5967 18.124C53.7647 18.292 53.9934 18.376 54.2827 18.376C54.6281 18.376 54.9221 18.2827 55.1647 18.096L55.7527 19.636C55.5287 19.7947 55.2581 19.916 54.9407 20C54.6327 20.0747 54.3107 20.112 53.9747 20.112ZM49.9987 14.316V12.636H55.2207V14.316H49.9987Z" fill="white"/>
</svg>
