<svg width="88" height="88" viewBox="0 0 88 88" fill="none" xmlns="http://www.w3.org/2000/svg">
<path fill-rule="evenodd" clip-rule="evenodd" d="M43.75 0C67.898 0 87.5 19.602 87.5 43.75C87.5 67.898 67.898 87.5 43.75 87.5C19.602 87.5 0 67.898 0 43.75C0 19.602 19.602 0 43.75 0ZM22.559 45.703L35.059 61.328C35.6176 62.0233 36.4418 62.4452 37.3285 62.4921C38.2152 62.5429 39.0824 62.2109 39.7113 61.5859L67.8363 33.4608C69.0551 32.242 69.0551 30.2578 67.8363 29.039C66.6175 27.8202 64.6332 27.8202 63.4144 29.039L37.7584 54.695L27.4424 41.797C26.3643 40.4493 24.3955 40.2306 23.0479 41.3087C21.7003 42.3868 21.4809 44.3554 22.559 45.703Z" fill="#06C158"/>
</svg>
