<svg width="40" height="38" viewBox="0 0 40 38" fill="none" xmlns="http://www.w3.org/2000/svg">
<path d="M5.15985 4.70045L5.95343 5.24985C6.01447 5.1888 8.3952 1.58718 8.21207 1.77032L7.41849 1.22092C6.86909 0.854651 6.07551 0.97674 5.70925 1.58718L4.85463 2.9912C4.48836 3.5406 4.61045 4.33418 5.15985 4.70045Z" fill="#004680"/>
<path d="M21.3367 10.3776C13.7672 5.37191 11.6916 3.96789 11.5696 3.90685C11.7527 4.02894 17.2467 7.63055 9.31091 2.38074L8.51733 3.60162L20.0547 11.1711L21.3367 10.3776Z" fill="#004680"/>
<path d="M28.662 0.854614V4.08997H31.8363L28.662 0.854614Z" fill="#004680"/>
<path d="M22.9237 9.95024L22.9848 10.0113C23.0458 10.0723 23.29 10.6828 24.9992 14.5286C25.3045 14.8948 24.9992 15.5053 24.5109 15.5053L19.5663 15.4442C19.4442 15.4442 19.3832 15.4442 19.2 15.3221L13.0345 11.2932V14.8338C14.8659 14.9559 16.3309 16.543 16.3309 18.3744C16.3309 19.4732 15.7815 20.5109 14.988 21.1214C17.0635 21.9149 18.5896 23.7463 18.8948 25.9439H32.6298V5.31086H27.9294C27.5631 5.31086 27.3189 5.06668 27.3189 4.70042V0H13.0345V3.41849C23.1679 10.1334 22.8627 9.88919 22.9237 9.95024ZM29.6386 21.976H21.0314C20.7261 21.976 20.4209 21.7318 20.4209 21.3655C20.4209 21.0603 20.7261 20.7551 21.0314 20.7551H29.6997C30.0659 20.7551 30.3101 21.0603 30.3101 21.3655C30.2491 21.6708 30.0049 21.976 29.6386 21.976ZM29.6386 16.4209H27.6852C27.38 16.4209 27.0748 16.1768 27.0748 15.8105C27.0748 15.5053 27.38 15.2001 27.6852 15.2001H29.6386C30.0049 15.2001 30.2491 15.5053 30.2491 15.8105C30.2491 16.1157 30.0049 16.4209 29.6386 16.4209ZM26.5254 9.64501H29.6997C30.0659 9.64501 30.3101 9.95024 30.3101 10.2555C30.3101 10.6217 30.0659 10.8659 29.6997 10.8659H26.5254C26.2201 10.8659 25.9149 10.6217 25.9149 10.2555C25.9149 9.88919 26.1591 9.64501 26.5254 9.64501ZM19.3832 4.70042C19.3832 4.33415 19.6884 4.08997 19.9936 4.08997H24.3888C24.694 4.08997 24.9992 4.33415 24.9992 4.70042C24.9992 5.06668 24.694 5.31086 24.3888 5.31086H19.9936C19.6884 5.31086 19.3832 5.00564 19.3832 4.70042Z" fill="#004680"/>
<path d="M19.3222 12.2699L7.78479 4.63934L6.99121 5.86023L19.078 13.796C19.078 13.735 19.3222 12.3309 19.3222 12.2699Z" fill="#004680"/>
<path d="M7.78467 27.0427C7.78467 28.0194 10.0433 28.7519 12.7903 28.7519C15.5983 28.7519 17.857 27.9584 17.857 27.0427C17.857 24.2957 15.5983 21.976 12.7903 21.976C10.0433 21.976 7.78467 24.2347 7.78467 27.0427Z" fill="#004680"/>
<path d="M20.543 12.331L20.2378 14.2233L23.5342 14.2844L22.1912 11.2932L20.543 12.331Z" fill="#004680"/>
<path d="M12.7904 20.7551C14.0723 20.7551 15.1711 19.7173 15.1711 18.4354C15.1711 17.1535 14.1334 16.0547 12.7904 16.0547C11.5085 16.0547 10.4707 17.0924 10.4707 18.4354C10.4707 19.7173 11.5085 20.7551 12.7904 20.7551Z" fill="#004680"/>
<path d="M39.1616 32.0483H38.1849V8.97348C38.1849 8.60721 37.9407 8.36304 37.5744 8.36304H33.9118V9.58392H36.964V32.0483H3.51165V9.58392H10.4707L8.63938 8.36304H2.90121C2.53494 8.36304 2.29077 8.60721 2.29077 8.97348V32.0483H1.31406C1.00884 32.0483 0.703613 32.3535 0.703613 32.6587V33.7575C0.703613 35.833 2.41286 37.4812 4.48836 37.4812H36.0483C38.1238 37.4812 39.772 35.772 39.772 33.7575V32.6587C39.772 32.2924 39.5278 32.0483 39.1616 32.0483Z" fill="#004680"/>
</svg>
