<svg width="31" height="31" viewBox="0 0 31 31" fill="none" xmlns="http://www.w3.org/2000/svg">
<path fill-rule="evenodd" clip-rule="evenodd" d="M16.525 23.5493C19.8026 20.824 20.5559 21.3146 23.6804 23.2592C25.3257 24.473 27.5845 25.2668 23.3069 29.4376C22.1271 30.5583 21.0625 31.3341 19.5789 30.8564C11.7122 27.2911 3.70889 19.2877 0.143571 11.4211C-0.334179 9.93745 0.441964 8.87254 1.56238 7.69276C5.73315 3.41548 6.52726 5.67396 7.74073 7.31961C9.68574 10.4434 10.1763 11.1974 7.45068 14.4746C10.8132 18.6114 12.3886 20.1868 16.525 23.5493ZM30.699 12.1067C29.5337 13.2368 27.8175 13.941 26.2668 14.3492C25.859 15.8999 25.1544 17.6161 24.0247 18.7817C27.2576 17.8862 29.8035 15.3403 30.699 12.1067ZM21.0202 19.0824V14.937C19.8244 14.9119 18.6808 14.7849 17.622 14.5731C18.1062 16.2024 19.2247 18.698 21.0202 19.0824ZM21.0202 14.0594V9.9798H16.9405C16.9688 11.2786 17.1212 12.5097 17.3747 13.6253C18.4896 13.8788 19.7211 14.0312 21.0202 14.0594ZM21.0202 9.10259V5.02327C19.7211 5.05118 18.4896 5.20391 17.3747 5.45738C17.1212 6.57299 16.9688 7.80378 16.9405 9.10291L21.0202 9.10259ZM21.0202 4.14542V0C19.2247 0.384061 18.1062 2.87997 17.622 4.50894C18.6808 4.2975 19.8247 4.17044 21.0202 4.14542ZM21.8974 0V4.14542C23.0926 4.17044 24.2367 4.2975 25.2952 4.50894C24.8111 2.87997 23.6923 0.384381 21.8974 0ZM21.8974 5.02327V9.10259H25.9767C25.9488 7.80378 25.7961 6.57267 25.5426 5.45706C24.4273 5.20391 23.1962 5.05118 21.8974 5.02327ZM21.8974 9.9798V14.0594C23.1962 14.0315 24.4273 13.8788 25.5426 13.6253C25.7958 12.5097 25.9488 11.2789 25.9767 9.9798H21.8974ZM21.8974 14.937V19.0824C23.6923 18.698 24.8107 16.2024 25.2952 14.5731C24.2367 14.7849 23.0926 14.9119 21.8974 14.937ZM11.9176 9.10259H16.063C16.088 7.90709 16.2151 6.76325 16.4269 5.70476C14.7976 6.18893 12.3017 7.30742 11.9176 9.10259ZM26.8546 9.10259H31C30.6159 7.30742 28.1197 6.18893 26.4904 5.70476C26.7022 6.76325 26.8296 7.90709 26.8546 9.10259ZM31 9.9798H26.8546C26.8296 11.1753 26.7022 12.3191 26.4904 13.3776C28.1197 12.8935 30.6156 11.775 31 9.9798ZM16.063 9.9798H11.9176C12.3017 11.775 14.7976 12.8935 16.4269 13.3776C16.2151 12.3191 16.088 11.1753 16.063 9.9798ZM18.8929 18.7821C17.7629 17.6161 17.0586 15.9005 16.6508 14.3495C15.0998 13.9417 13.3836 13.2374 12.2182 12.1071C13.1137 15.34 15.6597 17.8862 18.8929 18.7821ZM12.2179 6.97566C13.3836 5.84561 15.0998 5.14134 16.6505 4.73354C17.0583 3.18286 17.7626 1.46662 18.8926 0.30096C15.6597 1.19614 13.1137 3.74242 12.2179 6.97566ZM24.0243 0.300639C25.1541 1.4663 25.8587 3.18254 26.2665 4.73322C27.8175 5.14102 29.5334 5.84529 30.6987 6.97534C29.8035 3.74242 27.2576 1.19614 24.0243 0.300639Z" fill="#004680"/>
</svg>
