<svg width="15" height="15" viewBox="0 0 15 15" fill="none" xmlns="http://www.w3.org/2000/svg">
<path fill-rule="evenodd" clip-rule="evenodd" d="M13.0883 4.32419L13.6445 4.01378C13.8308 3.90982 14.049 4.08452 13.9903 4.29065L13.6175 5.59949C13.5811 5.72727 13.4487 5.80116 13.3218 5.76452L12.0217 5.38921C11.8169 5.33011 11.7854 5.05128 11.9717 4.94732L12.6701 4.55757C11.0626 1.67001 7.43746 0.630518 4.55865 2.23705C1.67151 3.84823 0.628378 7.51065 2.22875 10.4173C3.82911 13.3239 7.46696 14.3741 10.3541 12.763C11.3662 12.1981 12.1756 11.3675 12.7134 10.3649C12.7762 10.2479 12.9212 10.2043 13.0374 10.2674C13.1536 10.3306 13.1969 10.4766 13.1342 10.5936C12.5532 11.6766 11.6786 12.5742 10.5859 13.184C7.4678 14.9241 3.53893 13.7899 1.81054 10.6507C0.0821382 7.51151 1.20872 3.55609 4.32684 1.81601C7.43661 0.0805876 11.3528 1.20409 13.0883 4.32419ZM7.44633 8.04606C7.53641 8.14331 7.68775 8.1486 7.78431 8.05786L9.88167 6.08706C9.9782 5.99636 9.98341 5.84405 9.89332 5.74687C9.80322 5.64968 9.65194 5.64443 9.55541 5.73514L7.63298 7.54171L4.86108 4.54913C4.77102 4.45191 4.61974 4.44659 4.52317 4.53725C4.4266 4.62791 4.42132 4.78021 4.51137 4.87744L7.44633 8.04606Z" fill="#6B7280" stroke="#6B7280" stroke-width="0.5"/>
</svg>
