<svg width="39" height="44" viewBox="0 0 39 44" fill="none" xmlns="http://www.w3.org/2000/svg">
<path d="M18.6936 22.3719C17.3483 22.3719 16.2524 23.4662 16.2524 24.813C16.2524 26.1582 17.3467 27.2541 18.6936 27.2541C20.0388 27.2541 21.1347 26.1598 21.1347 24.813C21.1331 23.4662 20.0388 22.3719 18.6936 22.3719Z" fill="#004680"/>
<path d="M31.7091 25.6261C31.2597 25.6261 30.8959 25.2624 30.8959 24.813C30.8959 24.3635 31.2597 23.9998 31.7091 23.9998H37.3855C36.9694 14.329 29.1775 6.53715 19.5067 6.12103V10.576C19.5067 11.0255 19.143 11.3892 18.6935 11.3892C18.2441 11.3892 17.8804 11.0255 17.8804 10.576V6.12103C8.20959 6.53715 0.417707 14.329 0.00158882 23.9998H5.67635C6.12582 23.9998 6.48953 24.3635 6.48953 24.813C6.48953 25.2624 6.12582 25.6261 5.67635 25.6261H0C0.416118 35.2969 8.208 43.0888 17.8788 43.5049V37.8286C17.8788 37.3791 18.2425 37.0154 18.6919 37.0154C19.1414 37.0154 19.5051 37.3791 19.5051 37.8286V43.5049C29.1759 43.0888 36.9678 35.2969 37.3839 25.6261H31.7091ZM18.6935 28.8804C17.8661 28.8804 17.0958 28.6311 16.4525 28.2054L9.50718 35.1508C9.34835 35.3096 9.1403 35.389 8.93224 35.389C8.72418 35.389 8.51612 35.3096 8.3573 35.1508C8.03965 34.8332 8.03965 34.3186 8.3573 34.0009L15.3026 27.0556C14.8754 26.4123 14.6276 25.642 14.6276 24.8146C14.6276 22.572 16.4525 20.7471 18.6951 20.7471C20.9377 20.7471 22.7626 22.572 22.7626 24.8146C22.761 27.0556 20.9361 28.8804 18.6935 28.8804Z" fill="#004680"/>
<path d="M19.5066 5.26182V1.62635H25.2021C25.6515 1.62635 26.0152 1.26265 26.0152 0.813176C26.0152 0.363705 25.6515 0 25.2021 0H12.1849C11.7354 0 11.3717 0.363705 11.3717 0.813176C11.3717 1.26265 11.7354 1.62635 12.1849 1.62635H17.8803V5.26023C18.1487 5.25071 19.4034 5.23324 19.5066 5.26182Z" fill="#004680"/>
<path d="M33.1052 11.1447L35.4479 8.802L37.3125 10.6666C37.4713 10.8254 37.6793 10.9048 37.8874 10.9048C38.0955 10.9048 38.3035 10.8254 38.4623 10.6666C38.78 10.3489 38.78 9.83436 38.4623 9.51671L33.5817 4.63606C33.264 4.31842 32.7495 4.31842 32.4318 4.63606C32.1142 4.95371 32.1142 5.4683 32.4318 5.78595L34.2964 7.65053L31.9363 10.0106C32.3413 10.3728 32.7304 10.7508 33.1052 11.1447Z" fill="#004680"/>
</svg>
