<svg width="42" height="42" viewBox="0 0 42 42" fill="none" xmlns="http://www.w3.org/2000/svg">
<circle cx="21" cy="21" r="20.25" fill="#004680" stroke="#E1E1E1" stroke-width="0.5"/>
<path fill-rule="evenodd" clip-rule="evenodd" d="M14.9502 11V11.4681C15.0631 11.4596 15.1782 11.4553 15.2932 11.4553C17.5215 11.4553 19.3281 13.2894 19.3281 15.5489C19.3281 16.5255 18.9915 17.4191 18.4312 18.1234V28.9894L14.9822 26.8255L14.9502 26.8511V31H30.5124V11H14.9502ZM19.948 28.1509H27.9259C28.2116 28.1509 28.4438 28.3851 28.4438 28.6745C28.4438 28.9657 28.2116 29.2 27.9259 29.2H19.948C19.6625 29.2 19.4303 28.9657 19.4303 28.6745C19.4303 28.3851 19.6625 28.1509 19.948 28.1509ZM19.948 25.3487H27.9259C28.2116 25.3487 28.4438 25.5849 28.4438 25.8745C28.4438 26.1657 28.2116 26.4 27.9259 26.4H19.948C19.6625 26.4 19.4303 26.1657 19.4303 25.8745C19.4303 25.5851 19.6625 25.3487 19.948 25.3487ZM19.948 22.5487H27.9259C28.2116 22.5487 28.4438 22.7851 28.4438 23.0745C28.4438 23.366 28.2116 23.6002 27.9259 23.6002H19.948C19.6625 23.6002 19.4303 23.366 19.4303 23.0745C19.4303 22.7853 19.6625 22.5487 19.948 22.5487ZM12.1914 15.5489C12.1914 16.3 12.4492 16.9894 12.8816 17.5319V27.8L15.1398 25.7L17.7069 27.8V17.5319C18.1393 16.9894 18.3971 16.3 18.3971 15.5489C18.3971 13.8106 17.0081 12.4 15.2932 12.4C13.5804 12.4 12.1914 13.8106 12.1914 15.5489ZM13.4696 15.3617C13.4696 14.3638 14.2813 13.5532 15.2804 13.5532C16.2795 13.5532 17.0912 14.3638 17.0912 15.3617C17.0912 16.3596 16.2795 17.1702 15.2804 17.1702C14.2813 17.1702 13.4696 16.3596 13.4696 15.3617Z" fill="white"/>
</svg>
