<svg width="46" height="46" viewBox="0 0 46 46" fill="none" xmlns="http://www.w3.org/2000/svg">
<circle cx="23" cy="23" r="23" fill="white"/>
<path d="M23.5035 9C15.5059 9 9 15.4989 9 23.4965C9 27.3468 10.5078 30.8518 12.9649 33.4505C15.6111 36.2496 19.3562 38 23.5035 38C31.5011 38 38 31.4941 38 23.4965C38 15.4989 31.5011 9 23.5035 9ZM23.5035 10.8125C30.5212 10.8125 36.1875 16.4788 36.1875 23.4965C36.1875 26.273 35.2994 28.8377 33.7927 30.9255C32.703 27.852 30.2356 25.4268 27.1193 24.3529C28.5817 23.2507 29.5299 21.5005 29.5299 19.5363C29.5299 16.2172 26.8213 13.5017 23.5034 13.5017C20.1843 13.5017 17.4746 16.217 17.4746 19.5363C17.4746 21.5006 18.425 23.2509 19.8875 24.3529C16.77 25.4257 14.2971 27.85 13.2062 30.9231C11.6995 28.8365 10.8125 26.2718 10.8125 23.4965C10.8125 16.4788 16.4855 10.8125 23.5035 10.8125ZM23.5035 15.3153C25.8427 15.3153 27.7175 17.1981 27.7175 19.5374C27.7175 21.8767 25.8427 23.7514 23.5035 23.7514C21.1642 23.7514 19.2872 21.8766 19.2872 19.5374C19.2872 17.1982 21.1643 15.3153 23.5035 15.3153ZM23.5035 25.5639C27.892 25.5639 31.5011 28.5567 32.3836 32.5648C30.0976 34.8067 26.9652 36.1875 23.5035 36.1875C20.0426 36.1875 16.9095 34.8077 14.6211 32.5683C15.5024 28.5593 19.1126 25.5639 23.5035 25.5639Z" fill="#26211F"/>
</svg>
