<svg width="37" height="37" viewBox="0 0 37 37" fill="none" xmlns="http://www.w3.org/2000/svg">
<circle cx="18.5" cy="18.5" r="18.5" fill="black"/>
<mask id="mask0_67_1247" style="mask-type:luminance" maskUnits="userSpaceOnUse" x="7" y="10" width="23" height="18">
<path d="M7.76709 10H29.8455V27.9064H7.76709V10Z" fill="white"/>
</mask>
<g mask="url(#mask0_67_1247)">
<path d="M27.2114 17.1586C26.7278 17.1586 25.8276 17.2499 25.2456 17.8719L24.8861 18.2513V10L13.6161 13.7234V11.6748L11.6659 12.3182V14.3668L7.76709 15.655V27.9064H24.8861V25.9591H9.71295V17.0602L11.6659 16.4196V24.0119H13.6303L13.7373 23.223L14.0355 23.5326C14.3978 23.9077 15.1767 24.1588 15.9571 24.1588C17.7717 24.1588 19.0385 22.7408 19.0385 20.7108C19.0385 18.6807 17.7717 17.2328 15.9571 17.2328C15.0769 17.2328 14.4135 17.5052 13.9827 18.0431L13.6161 18.5067V15.7734L22.9388 12.6948V24.1075H24.8861V20.2999C24.8861 19.3398 25.6193 18.9019 26.2998 18.9019C27.006 18.9019 27.7193 19.3826 27.7193 20.2999V24.1032H29.6665V19.6237C29.6665 18.006 28.4297 17.1586 27.2085 17.1586H27.2114ZM15.3622 18.8862C16.4022 18.8862 17.1269 19.6309 17.1269 20.6951C17.1269 21.7593 16.3851 22.5054 15.3622 22.5054C14.3636 22.5054 13.6503 21.7436 13.6503 20.6951C13.6503 19.6465 14.3707 18.8862 15.3622 18.8862Z" fill="white"/>
<path d="M21.825 19.8691H20.1516V21.5425H21.825V19.8691Z" fill="white"/>
</g>
</svg>
